<svg width="479" height="465" viewBox="0 0 479 465" fill="none" xmlns="http://www.w3.org/2000/svg">
<g clip-path="url(#clip0_101_2)">
<path d="M243.8 57.1C248.047 66.52 252.4 75.8967 256.86 85.23C258.753 89.1967 261.713 90.7733 265.74 89.96C270.42 89.0067 272.817 86.5667 272.93 82.64C272.99 80.76 272.157 77.93 270.43 74.15C261.677 54.9167 252.823 35.6967 243.87 16.49C243.834 16.4112 243.777 16.3443 243.704 16.2973C243.631 16.2504 243.547 16.2255 243.46 16.2255C243.373 16.2255 243.289 16.2504 243.216 16.2973C243.143 16.3443 243.086 16.4112 243.05 16.49C233.343 37.0967 223.843 57.85 214.55 78.75C213.463 81.1967 213.473 83.5433 214.58 85.79C216.82 90.35 222.44 91.45 226.64 88.89C228.84 87.54 230.52 84.08 231.42 81.94C234.993 73.44 238.82 65.1533 242.9 57.08C242.943 56.9963 243.008 56.9264 243.089 56.8783C243.17 56.8301 243.262 56.8057 243.356 56.8078C243.45 56.8099 243.542 56.8384 243.62 56.8901C243.699 56.9418 243.761 57.0145 243.8 57.1Z" stroke="#808183" stroke-width="2"/>
<path d="M306.62 51.97C306.62 51.0783 306.444 50.1954 306.103 49.3716C305.762 48.5478 305.262 47.7993 304.631 47.1687C304.001 46.5382 303.252 46.0381 302.428 45.6969C301.605 45.3556 300.722 45.18 299.83 45.18C298.029 45.18 296.302 45.8954 295.029 47.1687C293.755 48.4421 293.04 50.1692 293.04 51.97C293.04 53.7708 293.755 55.4979 295.029 56.7713C296.302 58.0446 298.029 58.76 299.83 58.76C300.722 58.76 301.605 58.5844 302.428 58.2431C303.252 57.9019 304.001 57.4018 304.631 56.7713C305.262 56.1407 305.762 55.3922 306.103 54.5684C306.444 53.7446 306.62 52.8617 306.62 51.97Z" stroke="#808183" stroke-width="2"/>
<path d="M190.258 51.7014C189.834 51.0094 189.153 50.5143 188.363 50.3248C187.574 50.1354 186.742 50.2672 186.05 50.6912L131.43 84.1624C131.088 84.3724 130.79 84.6478 130.553 84.9729C130.317 85.298 130.147 85.6664 130.054 86.0572C129.96 86.4479 129.944 86.8533 130.007 87.2502C130.07 87.6471 130.21 88.0278 130.42 88.3704L130.462 88.4386C130.886 89.1306 131.567 89.6257 132.357 89.8152C133.146 90.0046 133.978 89.8728 134.67 89.4488L189.29 55.9776C189.632 55.7676 189.93 55.4922 190.167 55.1671C190.403 54.842 190.573 54.4736 190.666 54.0828C190.76 53.6921 190.776 53.2867 190.713 52.8898C190.65 52.4929 190.51 52.1122 190.3 51.7696L190.258 51.7014Z" stroke="#808183" stroke-width="2"/>
<path d="M334.92 67.33C334.92 66.5741 334.62 65.8492 334.085 65.3147C333.551 64.7803 332.826 64.48 332.07 64.48C331.314 64.48 330.589 64.7803 330.055 65.3147C329.52 65.8492 329.22 66.5741 329.22 67.33C329.22 68.0859 329.52 68.8108 330.055 69.3453C330.589 69.8797 331.314 70.18 332.07 70.18C332.826 70.18 333.551 69.8797 334.085 69.3453C334.62 68.8108 334.92 68.0859 334.92 67.33Z" stroke="#808183" stroke-width="2"/>
<path d="M184.37 83.79C184.37 82.9599 184.04 82.1637 183.453 81.5768C182.866 80.9898 182.07 80.66 181.24 80.66C180.41 80.66 179.614 80.9898 179.027 81.5768C178.44 82.1637 178.11 82.9599 178.11 83.79C178.11 84.6201 178.44 85.4163 179.027 86.0032C179.614 86.5902 180.41 86.92 181.24 86.92C182.07 86.92 182.866 86.5902 183.453 86.0032C184.04 85.4163 184.37 84.6201 184.37 83.79Z" stroke="#808183" stroke-width="2"/>
<path d="M314.631 98.25C315.524 98.4416 316.448 98.4492 317.35 98.2724C318.251 98.0957 319.113 97.7379 319.885 97.2197C320.657 96.7014 321.325 96.0328 321.85 95.252C322.375 94.4712 322.747 93.5934 322.945 92.6689C323.346 90.8018 323.013 88.8574 322.019 87.2636C321.026 85.6697 319.454 84.5569 317.649 84.17C316.756 83.9784 315.832 83.9708 314.93 84.1476C314.029 84.3243 313.167 84.6821 312.395 85.2003C311.623 85.7186 310.955 86.3872 310.43 87.168C309.905 87.9489 309.533 88.8266 309.335 89.7511C308.934 91.6182 309.267 93.5626 310.261 95.1564C311.254 96.7503 312.826 97.8631 314.631 98.25Z" stroke="#808183" stroke-width="2"/>
<path d="M360.362 91.6115C360.104 90.8628 359.698 90.1736 359.165 89.5833C358.632 88.993 357.984 88.5131 357.257 88.1711C356.53 87.8291 355.74 87.6317 354.93 87.59C354.12 87.5484 353.307 87.6634 352.537 87.9285C350.982 88.4638 349.698 89.578 348.967 91.0257C348.235 92.4735 348.117 94.1364 348.638 95.6485C348.896 96.3972 349.303 97.0864 349.835 97.6767C350.368 98.267 351.016 98.7469 351.743 99.0889C352.47 99.4309 353.26 99.6283 354.07 99.67C354.88 99.7116 355.693 99.5966 356.463 99.3315C358.018 98.7961 359.302 97.682 360.033 96.2343C360.765 94.7865 360.883 93.1236 360.362 91.6115Z" stroke="#808183" stroke-width="2"/>
<path d="M107.28 94.5999C107.661 94.6046 108.03 94.432 108.304 94.1203C108.578 93.8086 108.734 93.3831 108.74 92.9376C108.743 92.717 108.708 92.4981 108.638 92.2934C108.568 92.0887 108.464 91.9022 108.333 91.7446C108.201 91.5869 108.044 91.4613 107.87 91.3747C107.696 91.2881 107.51 91.2424 107.321 91.2401C106.939 91.2354 106.57 91.408 106.296 91.7197C106.022 92.0314 105.866 92.4569 105.86 92.9024C105.857 93.123 105.892 93.3419 105.962 93.5466C106.032 93.7513 106.136 93.9378 106.267 94.0954C106.399 94.2531 106.556 94.3787 106.73 94.4653C106.904 94.5519 107.09 94.5976 107.28 94.5999Z" stroke="#808183" stroke-width="2"/>
<path d="M381.12 136.35C387.48 139.52 394.19 135.85 393.51 128.39C393.492 128.187 393.527 127.984 393.611 127.801C393.695 127.619 393.826 127.463 393.99 127.35L404.64 119.96C404.959 119.735 405.331 119.599 405.719 119.566C406.108 119.533 406.498 119.603 406.85 119.77C414.49 123.35 423.9 117.32 422.98 108.74C421.75 97.22 406.45 94.73 402.45 106.33C401.62 108.73 402.01 111.4 402.29 114C402.33 114.347 402.203 114.617 401.91 114.81L390.14 122.44C389.853 122.627 389.547 122.677 389.22 122.59C382.627 120.777 378.763 123.223 377.63 129.93C377.55 130.403 377.307 130.77 376.9 131.03C363.053 140.083 349.23 149.123 335.43 158.15C333.91 159.143 332.79 160.453 332.07 162.08C331.932 162.389 331.858 162.723 331.851 163.061C331.845 163.4 331.907 163.736 332.032 164.05C332.158 164.365 332.346 164.65 332.584 164.891C332.823 165.131 333.107 165.321 333.42 165.45C334.36 165.84 335.78 165.41 336.73 164.78C350.71 155.533 364.807 146.103 379.02 136.49C379.327 136.283 379.684 136.162 380.052 136.137C380.421 136.112 380.79 136.186 381.12 136.35Z" stroke="#808183" stroke-width="2"/>
<path d="M74.4205 120.533C75.8326 120.481 77.2205 120.147 78.505 119.55C79.7894 118.954 80.9453 118.106 81.9066 117.055C82.8679 116.004 83.6158 114.771 84.1076 113.426C84.5994 112.081 84.8254 110.65 84.7728 109.216C84.7202 107.781 84.39 106.371 83.801 105.066C83.2121 103.76 82.3759 102.585 81.3402 101.608C80.3045 100.63 79.0896 99.8689 77.7649 99.3678C76.4402 98.8668 75.0316 98.6355 73.6195 98.6873C72.2074 98.7391 70.8195 99.0729 69.5351 99.6696C68.2506 100.266 67.0947 101.114 66.1334 102.165C65.1721 103.216 64.4242 104.449 63.9324 105.794C63.4406 107.139 63.2146 108.57 63.2672 110.004C63.3198 111.439 63.65 112.849 64.239 114.154C64.8279 115.46 65.6641 116.635 66.6998 117.612C67.7355 118.59 68.9504 119.351 70.2751 119.852C71.5998 120.353 73.0084 120.584 74.4205 120.533Z" stroke="#808183" stroke-width="2"/>
<path d="M280.78 105.55C276.85 103.94 271.95 106.46 270.22 110.17C269.487 111.75 269.443 113.65 270.09 115.87C271.77 121.61 275.36 129.71 282.53 128.36C288.32 127.28 291.16 122.14 288.72 116.68C287.12 113.08 284.45 107.06 280.78 105.55Z" stroke="#808183" stroke-width="2"/>
<path d="M216.514 116.962C216.967 115.976 217.222 114.911 217.263 113.827C217.305 112.743 217.133 111.662 216.756 110.645C216.38 109.627 215.807 108.694 215.07 107.898C214.333 107.102 213.446 106.459 212.461 106.006L212.37 105.964C211.385 105.511 210.319 105.256 209.236 105.215C208.152 105.173 207.07 105.345 206.053 105.721C205.035 106.098 204.102 106.671 203.306 107.408C202.51 108.145 201.867 109.031 201.414 110.017L85.0465 363.018C84.5932 364.004 84.3385 365.069 84.2969 366.153C84.2552 367.237 84.4275 368.318 84.8038 369.336C85.1801 370.353 85.7532 371.286 86.4902 372.082C87.2272 372.878 88.1137 373.521 89.0992 373.974L89.19 374.016C90.1755 374.469 91.2406 374.724 92.3245 374.765C93.4084 374.807 94.4899 374.635 95.5073 374.259C96.5246 373.882 97.4579 373.309 98.2538 372.572C99.0497 371.835 99.6926 370.949 100.146 369.963L216.514 116.962Z" stroke="#808183" stroke-width="2"/>
<path d="M253.08 118.16C253.08 115.598 252.062 113.141 250.251 111.329C248.439 109.518 245.982 108.5 243.42 108.5C240.858 108.5 238.401 109.518 236.589 111.329C234.778 113.141 233.76 115.598 233.76 118.16C233.76 120.722 234.778 123.179 236.589 124.991C238.401 126.802 240.858 127.82 243.42 127.82C245.982 127.82 248.439 126.802 250.251 124.991C252.062 123.179 253.08 120.722 253.08 118.16Z" stroke="#808183" stroke-width="2"/>
<path d="M167.51 113.09C167.51 112.273 167.186 111.49 166.608 110.912C166.03 110.334 165.247 110.01 164.43 110.01C163.613 110.01 162.83 110.334 162.252 110.912C161.674 111.49 161.35 112.273 161.35 113.09C161.35 113.907 161.674 114.69 162.252 115.268C162.83 115.846 163.613 116.17 164.43 116.17C165.247 116.17 166.03 115.846 166.608 115.268C167.186 114.69 167.51 113.907 167.51 113.09Z" stroke="#808183" stroke-width="2"/>
<path d="M117.776 128.728C119.382 129.117 121.083 128.826 122.504 127.919C123.926 127.013 124.951 125.565 125.355 123.895C125.759 122.224 125.509 120.468 124.659 119.012C123.809 117.556 122.43 116.52 120.824 116.132C119.218 115.743 117.517 116.034 116.096 116.941C114.674 117.847 113.649 119.295 113.245 120.965C112.841 122.636 113.091 124.392 113.941 125.848C114.791 127.304 116.17 128.34 117.776 128.728Z" stroke="#808183" stroke-width="2"/>
<path d="M328.174 123.376C327.847 122.51 327.172 121.816 326.299 121.447C325.425 121.077 324.424 121.062 323.516 121.405C322.608 121.748 321.868 122.421 321.457 123.276C321.046 124.131 320.999 125.098 321.326 125.964C321.653 126.83 322.328 127.524 323.201 127.893C324.075 128.263 325.076 128.278 325.984 127.935C326.892 127.592 327.632 126.919 328.043 126.064C328.454 125.209 328.501 124.242 328.174 123.376Z" stroke="#808183" stroke-width="2"/>
<path d="M151.37 139.289C151.43 138.568 151.343 137.842 151.112 137.152C150.881 136.462 150.511 135.821 150.024 135.267C149.536 134.712 148.941 134.255 148.271 133.921C147.602 133.587 146.871 133.382 146.121 133.319C145.371 133.256 144.617 133.336 143.901 133.554C143.185 133.772 142.522 134.123 141.949 134.588C141.376 135.054 140.904 135.624 140.561 136.266C140.218 136.908 140.011 137.609 139.95 138.33C139.89 139.052 139.977 139.778 140.208 140.468C140.439 141.158 140.809 141.799 141.296 142.353C141.784 142.908 142.379 143.365 143.049 143.699C143.718 144.033 144.449 144.238 145.199 144.301C145.949 144.364 146.703 144.284 147.419 144.066C148.135 143.848 148.798 143.497 149.371 143.032C149.945 142.566 150.416 141.996 150.759 141.354C151.102 140.712 151.309 140.011 151.37 139.289Z" stroke="#808183" stroke-width="2"/>
<path d="M302.409 148.876C301.461 146.842 299.744 145.269 297.635 144.502C295.527 143.734 293.2 143.836 291.166 144.784L290.84 144.936C288.806 145.884 287.233 147.602 286.466 149.71C285.698 151.818 285.8 154.145 286.748 156.179L310.271 206.624C311.219 208.657 312.936 210.231 315.045 210.998C317.153 211.766 319.48 211.664 321.514 210.716L321.84 210.564C323.873 209.616 325.447 207.898 326.214 205.79C326.982 203.682 326.88 201.355 325.932 199.321L302.409 148.876Z" stroke="#808183" stroke-width="2"/>
<path d="M426.15 148.43C426.15 147.709 425.863 147.017 425.353 146.507C424.843 145.997 424.151 145.71 423.43 145.71C422.709 145.71 422.017 145.997 421.507 146.507C420.997 147.017 420.71 147.709 420.71 148.43C420.71 149.151 420.997 149.843 421.507 150.353C422.017 150.863 422.709 151.15 423.43 151.15C424.151 151.15 424.843 150.863 425.353 150.353C425.863 149.843 426.15 149.151 426.15 148.43Z" stroke="#808183" stroke-width="2"/>
<path d="M234.48 163.32L248.3 163.28C248.784 163.279 249.258 163.418 249.665 163.678C250.073 163.939 250.397 164.311 250.6 164.75L305.89 283.59C306.042 283.914 306.109 284.27 306.085 284.627C306.061 284.983 305.947 285.328 305.753 285.63C305.56 285.931 305.293 286.179 304.978 286.35C304.662 286.522 304.309 286.611 303.95 286.61C270.697 286.397 237.353 286.423 203.92 286.69C200.26 286.723 197.683 287.04 196.19 287.64C190.61 289.9 189.16 297.12 193.51 301.34C196.74 304.49 200.01 303.86 204.28 303.86C243.08 303.9 281.877 303.933 320.67 303.96C325.6 303.96 329.86 303.2 330.84 297.98C331.093 296.6 330.793 295.007 329.94 293.2C307.92 246.473 286.113 199.643 264.52 152.71C262.47 148.24 259.01 146.17 253.89 146.15C246.217 146.123 238.527 146.1 230.82 146.08C222.59 146.06 221.12 150.19 217.77 157.45C196.843 202.837 175.823 248.187 154.71 293.5C152.37 298.53 155.37 303.26 160.61 304.17C165.363 304.997 168.93 302.86 171.31 297.76C192.11 253.12 212.903 208.473 233.69 163.82C233.843 163.487 234.107 163.32 234.48 163.32Z" stroke="#808183" stroke-width="2"/>
<path d="M91.61 149.35C91.61 148.918 91.4383 148.503 91.1326 148.197C90.8269 147.892 90.4123 147.72 89.98 147.72C89.5477 147.72 89.1331 147.892 88.8274 148.197C88.5217 148.503 88.35 148.918 88.35 149.35C88.35 149.782 88.5217 150.197 88.8274 150.503C89.1331 150.808 89.5477 150.98 89.98 150.98C90.4123 150.98 90.8269 150.808 91.1326 150.503C91.4383 150.197 91.61 149.782 91.61 149.35Z" stroke="#808183" stroke-width="2"/>
<path d="M407.79 155.52C407.79 154.761 407.489 154.034 406.952 153.498C406.416 152.961 405.689 152.66 404.93 152.66C404.171 152.66 403.444 152.961 402.908 153.498C402.371 154.034 402.07 154.761 402.07 155.52C402.07 156.279 402.371 157.006 402.908 157.542C403.444 158.079 404.171 158.38 404.93 158.38C405.689 158.38 406.416 158.079 406.952 157.542C407.489 157.006 407.79 156.279 407.79 155.52Z" stroke="#808183" stroke-width="2"/>
<path d="M105.95 161.02C105.95 160.187 105.619 159.389 105.03 158.8C104.441 158.211 103.643 157.88 102.81 157.88C101.977 157.88 101.179 158.211 100.59 158.8C100.001 159.389 99.67 160.187 99.67 161.02C99.67 161.853 100.001 162.651 100.59 163.24C101.179 163.829 101.977 164.16 102.81 164.16C103.643 164.16 104.441 163.829 105.03 163.24C105.619 162.651 105.95 161.853 105.95 161.02Z" stroke="#808183" stroke-width="2"/>
<path d="M71.69 163.51C71.69 162.168 71.1569 160.881 70.208 159.932C69.259 158.983 67.972 158.45 66.63 158.45C65.288 158.45 64.001 158.983 63.052 159.932C62.1031 160.881 61.57 162.168 61.57 163.51C61.57 164.852 62.1031 166.139 63.052 167.088C64.001 168.037 65.288 168.57 66.63 168.57C67.972 168.57 69.259 168.037 70.208 167.088C71.1569 166.139 71.69 164.852 71.69 163.51Z" stroke="#808183" stroke-width="2"/>
<path d="M385.53 167.24C385.53 166.336 385.171 165.468 384.531 164.829C383.892 164.189 383.024 163.83 382.12 163.83C381.672 163.83 381.229 163.918 380.815 164.09C380.401 164.261 380.025 164.512 379.709 164.829C379.392 165.145 379.141 165.521 378.97 165.935C378.798 166.349 378.71 166.792 378.71 167.24C378.71 167.688 378.798 168.131 378.97 168.545C379.141 168.959 379.392 169.335 379.709 169.651C380.025 169.968 380.401 170.219 380.815 170.39C381.229 170.562 381.672 170.65 382.12 170.65C383.024 170.65 383.892 170.291 384.531 169.651C385.171 169.012 385.53 168.144 385.53 167.24Z" stroke="#808183" stroke-width="2"/>
<path d="M100.31 195.63C94.4833 191.01 89.33 191.147 84.85 196.04C81.9 199.27 81.08 203.4 82.92 207.31C86.75 215.43 99.26 215.28 102.22 206.21C102.81 204.42 102.9 201.74 104.69 200.64C116.697 193.2 128.753 185.403 140.86 177.25C141.349 176.922 141.687 176.412 141.801 175.834C141.916 175.255 141.796 174.653 141.47 174.16L141.1 173.61C140.087 172.09 138.807 171.817 137.26 172.79L101.01 195.66C100.77 195.813 100.537 195.803 100.31 195.63Z" stroke="#808183" stroke-width="2"/>
<path d="M425.04 178.954C425.398 178.856 425.697 178.6 425.872 178.243C426.046 177.886 426.082 177.457 425.97 177.051C425.915 176.849 425.826 176.659 425.707 176.492C425.588 176.324 425.443 176.182 425.278 176.074C425.114 175.966 424.934 175.894 424.749 175.862C424.564 175.829 424.378 175.838 424.2 175.886C423.842 175.984 423.543 176.24 423.368 176.597C423.194 176.954 423.158 177.383 423.27 177.789C423.325 177.991 423.414 178.181 423.533 178.348C423.652 178.516 423.797 178.658 423.962 178.766C424.126 178.874 424.306 178.946 424.491 178.978C424.676 179.01 424.862 179.002 425.04 178.954Z" stroke="#808183" stroke-width="2"/>
<path d="M356.59 185.29C356.59 184.455 356.258 183.653 355.667 183.063C355.077 182.472 354.275 182.14 353.44 182.14C352.605 182.14 351.803 182.472 351.213 183.063C350.622 183.653 350.29 184.455 350.29 185.29C350.29 186.125 350.622 186.927 351.213 187.517C351.803 188.108 352.605 188.44 353.44 188.44C354.275 188.44 355.077 188.108 355.667 187.517C356.258 186.927 356.59 186.125 356.59 185.29Z" stroke="#808183" stroke-width="2"/>
<path d="M411.26 190.15C411.26 188.559 410.628 187.033 409.503 185.907C408.377 184.782 406.851 184.15 405.26 184.15C403.669 184.15 402.143 184.782 401.017 185.907C399.892 187.033 399.26 188.559 399.26 190.15C399.26 191.741 399.892 193.267 401.017 194.393C402.143 195.518 403.669 196.15 405.26 196.15C406.851 196.15 408.377 195.518 409.503 194.393C410.628 193.267 411.26 191.741 411.26 190.15Z" stroke="#808183" stroke-width="2"/>
<path d="M60.6542 193.358C60.7156 192.942 60.6909 192.518 60.5816 192.109C60.4723 191.701 60.2804 191.316 60.017 190.977C59.7536 190.637 59.4238 190.35 59.0464 190.132C58.669 189.914 58.2514 189.768 57.8175 189.704C57.3836 189.64 56.9418 189.659 56.5175 189.759C56.0931 189.858 55.6944 190.038 55.3441 190.286C54.9939 190.535 54.699 190.848 54.4762 191.208C54.2534 191.567 54.1072 191.966 54.0458 192.382C53.9844 192.798 54.0091 193.222 54.1184 193.631C54.2278 194.039 54.4196 194.424 54.683 194.763C54.9464 195.103 55.2763 195.39 55.6536 195.608C56.031 195.826 56.4486 195.972 56.8825 196.036C57.3164 196.1 57.7582 196.081 58.1826 195.981C58.607 195.882 59.0057 195.702 59.3559 195.454C59.7061 195.205 60.001 194.892 60.2238 194.532C60.4466 194.173 60.5928 193.774 60.6542 193.358Z" stroke="#808183" stroke-width="2"/>
<path d="M244.04 199.27C244.04 198.527 243.745 197.815 243.22 197.29C242.695 196.765 241.983 196.47 241.24 196.47C240.497 196.47 239.785 196.765 239.26 197.29C238.735 197.815 238.44 198.527 238.44 199.27C238.44 200.013 238.735 200.725 239.26 201.25C239.785 201.775 240.497 202.07 241.24 202.07C241.983 202.07 242.695 201.775 243.22 201.25C243.745 200.725 244.04 200.013 244.04 199.27Z" stroke="#808183" stroke-width="2"/>
<path d="M372.26 212.22C372.26 211.459 371.958 210.729 371.419 210.191C370.881 209.652 370.151 209.35 369.39 209.35C368.629 209.35 367.899 209.652 367.361 210.191C366.822 210.729 366.52 211.459 366.52 212.22C366.52 212.981 366.822 213.711 367.361 214.249C367.899 214.788 368.629 215.09 369.39 215.09C370.151 215.09 370.881 214.788 371.419 214.249C371.958 213.711 372.26 212.981 372.26 212.22Z" stroke="#808183" stroke-width="2"/>
<path d="M125.554 214.172C125.427 213.454 124.99 212.821 124.339 212.412C123.688 212.003 122.876 211.852 122.083 211.992C121.288 212.132 120.577 212.551 120.105 213.158C119.634 213.765 119.44 214.51 119.566 215.228C119.693 215.946 120.13 216.579 120.781 216.988C121.432 217.397 122.244 217.548 123.038 217.408C123.832 217.268 124.543 216.849 125.015 216.242C125.486 215.635 125.68 214.89 125.554 214.172Z" stroke="#808183" stroke-width="2"/>
<path d="M63.43 218.57C63.43 218.146 63.2614 217.739 62.9614 217.439C62.6613 217.139 62.2544 216.97 61.83 216.97C61.4057 216.97 60.9987 217.139 60.6986 217.439C60.3986 217.739 60.23 218.146 60.23 218.57C60.23 218.994 60.3986 219.401 60.6986 219.701C60.9987 220.001 61.4057 220.17 61.83 220.17C62.2544 220.17 62.6613 220.001 62.9614 219.701C63.2614 219.401 63.43 218.994 63.43 218.57Z" stroke="#808183" stroke-width="2"/>
<path d="M31.1999 240.868C33.9791 241.082 36.7319 240.15 38.8528 238.278C40.9737 236.407 42.2889 233.747 42.509 230.886C42.7292 228.025 41.8363 225.196 40.0267 223.022C38.2172 220.847 35.6393 219.506 32.8601 219.292C30.0809 219.078 27.3281 220.01 25.2072 221.882C23.0863 223.753 21.7712 226.413 21.551 229.274C21.3309 232.135 22.2238 234.964 24.0333 237.138C25.8428 239.313 28.4207 240.654 31.1999 240.868Z" stroke="#808183" stroke-width="2"/>
<path d="M416.21 249.11L433.35 237.78C433.584 237.624 433.866 237.552 434.147 237.578C434.429 237.603 434.695 237.724 434.9 237.92C441.17 244 452.35 239.81 453.51 231.52C454.77 222.56 444.55 215.85 436.72 221.21C433.213 223.61 431.573 226.893 431.8 231.06C431.82 231.373 431.7 231.62 431.44 231.8L412.78 244.6C412.533 244.773 412.29 244.767 412.05 244.58C410.51 243.4 408.923 243.02 407.29 243.44C402.53 244.653 399.997 247.8 399.69 252.88C399.67 253.233 399.513 253.513 399.22 253.72L381.74 266.23C380.113 267.397 379.833 268.823 380.9 270.51L381.27 271.1C381.434 271.359 381.648 271.581 381.9 271.755C382.153 271.928 382.438 272.048 382.738 272.108C383.038 272.168 383.347 272.166 383.647 272.103C383.946 272.04 384.23 271.916 384.48 271.74C390.673 267.36 395.997 263.437 400.45 259.97C401.46 259.19 403.1 258.82 404.54 259.15C411.17 260.69 416.03 256.79 415.78 249.96C415.767 249.6 415.91 249.317 416.21 249.11Z" stroke="#808183" stroke-width="2"/>
<path d="M396.35 224.99C396.35 224.537 396.261 224.088 396.087 223.67C395.914 223.251 395.66 222.871 395.34 222.55C395.019 222.23 394.639 221.976 394.22 221.803C393.802 221.629 393.353 221.54 392.9 221.54C391.985 221.54 391.107 221.903 390.46 222.55C389.813 223.197 389.45 224.075 389.45 224.99C389.45 225.905 389.813 226.783 390.46 227.43C391.107 228.077 391.985 228.44 392.9 228.44C393.353 228.44 393.802 228.351 394.22 228.177C394.639 228.004 395.019 227.75 395.34 227.43C395.66 227.109 395.914 226.729 396.087 226.31C396.261 225.892 396.35 225.443 396.35 224.99Z" stroke="#808183" stroke-width="2"/>
<path d="M251.34 233.68C251.34 231.187 250.35 228.796 248.587 227.033C246.824 225.27 244.433 224.28 241.94 224.28C239.447 224.28 237.056 225.27 235.293 227.033C233.53 228.796 232.54 231.187 232.54 233.68C232.54 236.173 233.53 238.564 235.293 240.327C237.056 242.09 239.447 243.08 241.94 243.08C244.433 243.08 246.824 242.09 248.587 240.327C250.35 238.564 251.34 236.173 251.34 233.68Z" stroke="#808183" stroke-width="2"/>
<path d="M340.336 232.114C339.398 230.046 337.678 228.436 335.553 227.637C333.428 226.838 331.072 226.917 329.005 227.854L328.841 227.929C327.817 228.393 326.895 229.055 326.127 229.875C325.359 230.696 324.76 231.66 324.364 232.712C323.969 233.765 323.784 234.884 323.822 236.008C323.859 237.131 324.117 238.237 324.582 239.26L383.664 369.506C384.602 371.574 386.322 373.184 388.447 373.983C390.572 374.782 392.928 374.703 394.995 373.766L395.159 373.691C396.183 373.227 397.105 372.565 397.873 371.745C398.641 370.924 399.24 369.96 399.636 368.908C400.031 367.855 400.216 366.735 400.178 365.612C400.141 364.488 399.883 363.383 399.418 362.36L340.336 232.114Z" stroke="#808183" stroke-width="2"/>
<path d="M70.42 231.41C70.42 231.012 70.262 230.631 69.9807 230.349C69.6994 230.068 69.3178 229.91 68.92 229.91C68.5222 229.91 68.1407 230.068 67.8594 230.349C67.578 230.631 67.42 231.012 67.42 231.41C67.42 231.808 67.578 232.189 67.8594 232.471C68.1407 232.752 68.5222 232.91 68.92 232.91C69.3178 232.91 69.6994 232.752 69.9807 232.471C70.262 232.189 70.42 231.808 70.42 231.41Z" stroke="#808183" stroke-width="2"/>
<path d="M99.79 243.58C99.79 242.764 99.6294 241.957 99.3173 241.204C99.0052 240.45 98.5478 239.766 97.9711 239.189C97.3945 238.612 96.7099 238.155 95.9565 237.843C95.203 237.531 94.3955 237.37 93.58 237.37C91.933 237.37 90.3535 238.024 89.1889 239.189C88.0243 240.353 87.37 241.933 87.37 243.58C87.37 245.227 88.0243 246.807 89.1889 247.971C90.3535 249.136 91.933 249.79 93.58 249.79C94.3955 249.79 95.203 249.629 95.9565 249.317C96.7099 249.005 97.3945 248.548 97.9711 247.971C98.5478 247.394 99.0052 246.71 99.3173 245.956C99.6294 245.203 99.79 244.396 99.79 243.58Z" stroke="#808183" stroke-width="2"/>
<path d="M376.33 241.51C376.33 240.751 376.029 240.024 375.492 239.488C374.956 238.951 374.229 238.65 373.47 238.65C372.711 238.65 371.984 238.951 371.448 239.488C370.911 240.024 370.61 240.751 370.61 241.51C370.61 242.269 370.911 242.996 371.448 243.532C371.984 244.069 372.711 244.37 373.47 244.37C374.229 244.37 374.956 244.069 375.492 243.532C376.029 242.996 376.33 242.269 376.33 241.51Z" stroke="#808183" stroke-width="2"/>
<path d="M70.94 260.02C70.94 259.259 70.6376 258.529 70.0994 257.991C69.5612 257.452 68.8312 257.15 68.07 257.15C67.3088 257.15 66.5788 257.452 66.0406 257.991C65.5024 258.529 65.2 259.259 65.2 260.02C65.2 260.781 65.5024 261.511 66.0406 262.049C66.5788 262.588 67.3088 262.89 68.07 262.89C68.8312 262.89 69.5612 262.588 70.0994 262.049C70.6376 261.511 70.94 260.781 70.94 260.02Z" stroke="#808183" stroke-width="2"/>
<path d="M225.46 263.74C225.46 263.378 225.389 263.019 225.25 262.684C225.111 262.349 224.908 262.045 224.652 261.788C224.395 261.532 224.091 261.329 223.756 261.19C223.421 261.051 223.062 260.98 222.7 260.98C221.968 260.98 221.266 261.271 220.748 261.788C220.231 262.306 219.94 263.008 219.94 263.74C219.94 264.472 220.231 265.174 220.748 265.692C221.266 266.209 221.968 266.5 222.7 266.5C223.062 266.5 223.421 266.429 223.756 266.29C224.091 266.151 224.395 265.948 224.652 265.692C224.908 265.435 225.111 265.131 225.25 264.796C225.389 264.461 225.46 264.102 225.46 263.74Z" stroke="#808183" stroke-width="2"/>
<path d="M269.683 264.064C269.778 263.392 269.58 262.706 269.135 262.159C268.689 261.612 268.031 261.247 267.306 261.145C266.947 261.094 266.583 261.11 266.233 261.191C265.884 261.272 265.556 261.416 265.269 261.616C264.982 261.816 264.742 262.067 264.561 262.355C264.381 262.643 264.264 262.963 264.217 263.296C264.122 263.968 264.32 264.654 264.765 265.201C265.211 265.748 265.869 266.113 266.594 266.215C266.953 266.266 267.317 266.25 267.667 266.169C268.016 266.088 268.344 265.944 268.631 265.744C268.918 265.544 269.158 265.293 269.339 265.005C269.519 264.717 269.636 264.397 269.683 264.064Z" stroke="#808183" stroke-width="2"/>
<path d="M431.971 268.072C432.14 268.139 432.321 268.166 432.506 268.155C432.69 268.143 432.874 268.091 433.046 268.003C433.218 267.915 433.376 267.792 433.509 267.641C433.643 267.49 433.75 267.314 433.825 267.123C433.976 266.738 433.985 266.316 433.851 265.949C433.717 265.582 433.45 265.301 433.109 265.168C432.94 265.101 432.759 265.074 432.574 265.085C432.39 265.097 432.206 265.149 432.034 265.237C431.862 265.325 431.704 265.448 431.571 265.599C431.437 265.75 431.33 265.926 431.255 266.116C431.104 266.502 431.095 266.924 431.229 267.291C431.363 267.658 431.63 267.939 431.971 268.072Z" stroke="#808183" stroke-width="2"/>
<path d="M68.64 301.85L50.88 271.42C50.7207 271.149 50.507 270.914 50.2523 270.729C49.9976 270.545 49.7074 270.415 49.3997 270.347C49.092 270.28 48.7735 270.276 48.4638 270.337C48.1542 270.398 47.8602 270.521 47.6 270.7L46.9 271.18C45.2 272.353 44.8767 273.827 45.93 275.6L62.93 304.17C63.1107 304.475 63.2045 304.823 63.201 305.176C63.1974 305.529 63.0968 305.873 62.91 306.17C61.2433 308.85 60.81 311.47 61.61 314.03C64.59 323.57 79.47 320.78 79 311.43C78.7133 305.603 75.4667 302.533 69.26 302.22C68.9867 302.207 68.78 302.083 68.64 301.85Z" stroke="#808183" stroke-width="2"/>
<path d="M93.213 281.905C93.1876 281.533 93.0846 281.169 92.9097 280.836C92.7349 280.502 92.4916 280.205 92.1939 279.961C91.8962 279.717 91.5498 279.531 91.1745 279.414C90.7993 279.296 90.4025 279.25 90.0068 279.277C89.2077 279.331 88.4617 279.682 87.9329 280.252C87.4041 280.822 87.1358 281.564 87.187 282.315C87.2124 282.687 87.3154 283.051 87.4903 283.384C87.6651 283.718 87.9084 284.015 88.2061 284.259C88.5038 284.503 88.8502 284.689 89.2255 284.806C89.6007 284.924 89.9975 284.97 90.3932 284.943C91.1923 284.889 91.9383 284.538 92.4671 283.968C92.9959 283.398 93.2642 282.656 93.213 281.905Z" stroke="#808183" stroke-width="2"/>
<path d="M429.9 288.98C429.9 287.391 429.269 285.868 428.146 284.744C427.022 283.621 425.499 282.99 423.91 282.99C422.321 282.99 420.798 283.621 419.674 284.744C418.551 285.868 417.92 287.391 417.92 288.98C417.92 290.569 418.551 292.092 419.674 293.216C420.798 294.339 422.321 294.97 423.91 294.97C425.499 294.97 427.022 294.339 428.146 293.216C429.269 292.092 429.9 290.569 429.9 288.98Z" stroke="#808183" stroke-width="2"/>
<path d="M394.185 290.609C394.076 290.466 393.938 290.346 393.78 290.258C393.621 290.17 393.444 290.114 393.259 290.095C393.074 290.075 392.885 290.091 392.702 290.143C392.519 290.195 392.347 290.282 392.194 290.397C392.041 290.513 391.911 290.656 391.811 290.818C391.711 290.979 391.644 291.157 391.612 291.34C391.581 291.523 391.586 291.709 391.628 291.886C391.67 292.062 391.747 292.227 391.856 292.371C391.964 292.514 392.102 292.634 392.26 292.722C392.419 292.81 392.596 292.866 392.781 292.885C392.966 292.905 393.155 292.888 393.338 292.837C393.521 292.785 393.693 292.698 393.846 292.583C393.999 292.467 394.129 292.324 394.229 292.163C394.329 292.001 394.396 291.823 394.428 291.64C394.459 291.457 394.454 291.271 394.412 291.095C394.37 290.918 394.293 290.753 394.185 290.609Z" stroke="#808183" stroke-width="2"/>
<path d="M42.9579 304.149C43.3344 304.159 43.6998 303.999 43.9739 303.704C44.248 303.409 44.4083 303.004 44.4195 302.577C44.425 302.366 44.3938 302.156 44.3276 301.958C44.2614 301.761 44.1614 301.581 44.0335 301.428C43.9056 301.275 43.7522 301.153 43.5821 301.067C43.412 300.982 43.2285 300.935 43.0421 300.931C42.6657 300.921 42.3002 301.081 42.0261 301.376C41.752 301.671 41.5917 302.076 41.5805 302.503C41.575 302.714 41.6062 302.924 41.6725 303.122C41.7387 303.319 41.8386 303.499 41.9665 303.652C42.0944 303.805 42.2478 303.927 42.4179 304.013C42.588 304.098 42.7715 304.145 42.9579 304.149Z" stroke="#808183" stroke-width="2"/>
<path d="M410.23 317.45C410.23 316.729 409.943 316.037 409.433 315.527C408.923 315.017 408.231 314.73 407.51 314.73C406.789 314.73 406.097 315.017 405.587 315.527C405.077 316.037 404.79 316.729 404.79 317.45C404.79 318.171 405.077 318.863 405.587 319.373C406.097 319.883 406.789 320.17 407.51 320.17C408.231 320.17 408.923 319.883 409.433 319.373C409.943 318.863 410.23 318.171 410.23 317.45Z" stroke="#808183" stroke-width="2"/>
<path d="M94.35 425.88C94.2967 426 94.3367 426.06 94.47 426.06L111.96 425.97C112.227 425.963 112.42 425.84 112.54 425.6C124.55 400.21 135.66 374.41 147.78 349.08C150.59 343.19 153.72 339 160.25 339C214.057 338.993 267.863 338.997 321.67 339.01C326.37 339.01 330.92 340.56 332.87 344.68C345.437 371.273 357.897 398.057 370.25 425.03C370.4 425.358 370.64 425.636 370.943 425.831C371.247 426.026 371.599 426.13 371.96 426.13L389 426.04C389.051 426.04 389.101 426.027 389.145 426.002C389.189 425.978 389.227 425.942 389.254 425.9C389.281 425.857 389.296 425.808 389.299 425.757C389.302 425.706 389.292 425.656 389.27 425.61C376.43 396.997 363.637 369.067 350.89 341.82C347.34 334.23 343.64 322.35 334 322.27C303.373 322.01 242.373 321.97 151 322.15C143.68 322.16 140.03 325.5 136.97 332.16C122.943 362.647 108.737 393.887 94.35 425.88Z" stroke="#808183" stroke-width="2"/>
<path d="M63 341.01C63 340.225 62.6882 339.472 62.1331 338.917C61.5779 338.362 60.8251 338.05 60.04 338.05C59.255 338.05 58.5021 338.362 57.947 338.917C57.3919 339.472 57.08 340.225 57.08 341.01C57.08 341.795 57.3919 342.548 57.947 343.103C58.5021 343.658 59.255 343.97 60.04 343.97C60.8251 343.97 61.5779 343.658 62.1331 343.103C62.6882 342.548 63 341.795 63 341.01Z" stroke="#808183" stroke-width="2"/>
<path d="M425.89 341.15C425.89 340.368 425.579 339.617 425.026 339.064C424.473 338.511 423.722 338.2 422.94 338.2C422.158 338.2 421.407 338.511 420.854 339.064C420.301 339.617 419.99 340.368 419.99 341.15C419.99 341.932 420.301 342.683 420.854 343.236C421.407 343.789 422.158 344.1 422.94 344.1C423.722 344.1 424.473 343.789 425.026 343.236C425.579 342.683 425.89 341.932 425.89 341.15Z" stroke="#808183" stroke-width="2"/>
<path d="M180.68 357.06C180.68 356.402 180.419 355.771 179.954 355.306C179.489 354.841 178.858 354.58 178.2 354.58C177.542 354.58 176.911 354.841 176.446 355.306C175.981 355.771 175.72 356.402 175.72 357.06C175.72 357.718 175.981 358.349 176.446 358.814C176.911 359.279 177.542 359.54 178.2 359.54C178.858 359.54 179.489 359.279 179.954 358.814C180.419 358.349 180.68 357.718 180.68 357.06Z" stroke="#808183" stroke-width="2"/>
<path d="M217.73 356.55C217.73 356.078 217.542 355.625 217.209 355.291C216.875 354.958 216.422 354.77 215.95 354.77C215.478 354.77 215.025 354.958 214.691 355.291C214.358 355.625 214.17 356.078 214.17 356.55C214.17 357.022 214.358 357.475 214.691 357.809C215.025 358.142 215.478 358.33 215.95 358.33C216.422 358.33 216.875 358.142 217.209 357.809C217.542 357.475 217.73 357.022 217.73 356.55Z" stroke="#808183" stroke-width="2"/>
<path d="M247.82 368.07C247.82 366.534 247.21 365.062 246.124 363.976C245.038 362.89 243.566 362.28 242.03 362.28C240.494 362.28 239.022 362.89 237.936 363.976C236.85 365.062 236.24 366.534 236.24 368.07C236.24 369.606 236.85 371.078 237.936 372.164C239.022 373.25 240.494 373.86 242.03 373.86C243.566 373.86 245.038 373.25 246.124 372.164C247.21 371.078 247.82 369.606 247.82 368.07Z" stroke="#808183" stroke-width="2"/>
<path d="M318.77 373.35C318.77 372.569 318.616 371.795 318.317 371.073C318.018 370.351 317.58 369.695 317.027 369.143C316.475 368.59 315.819 368.152 315.097 367.853C314.375 367.554 313.601 367.4 312.82 367.4C312.039 367.4 311.265 367.554 310.543 367.853C309.821 368.152 309.165 368.59 308.613 369.143C308.06 369.695 307.622 370.351 307.323 371.073C307.024 371.795 306.87 372.569 306.87 373.35C306.87 374.928 307.497 376.441 308.613 377.557C309.729 378.673 311.242 379.3 312.82 379.3C314.398 379.3 315.911 378.673 317.027 377.557C318.143 376.441 318.77 374.928 318.77 373.35Z" stroke="#808183" stroke-width="2"/>
<path d="M240.22 399.076C240.352 398.687 240.407 398.275 240.38 397.865C240.354 397.455 240.247 397.054 240.065 396.685C239.884 396.316 239.632 395.987 239.323 395.715C239.014 395.444 238.655 395.236 238.266 395.104L178.078 374.614C177.292 374.347 176.432 374.402 175.687 374.769C174.942 375.135 174.373 375.783 174.106 376.569L174.08 376.644C173.948 377.033 173.893 377.445 173.92 377.855C173.946 378.265 174.053 378.666 174.235 379.035C174.416 379.404 174.668 379.733 174.977 380.005C175.286 380.276 175.645 380.484 176.034 380.616L236.222 401.106C237.008 401.373 237.868 401.318 238.613 400.951C239.358 400.585 239.927 399.937 240.194 399.151L240.22 399.076Z" stroke="#808183" stroke-width="2"/>
<path d="M285.92 382.85C285.92 382.025 285.758 381.209 285.442 380.447C285.126 379.685 284.664 378.993 284.081 378.409C283.497 377.826 282.805 377.364 282.043 377.048C281.281 376.732 280.465 376.57 279.64 376.57C278.815 376.57 277.999 376.732 277.237 377.048C276.475 377.364 275.783 377.826 275.199 378.409C274.616 378.993 274.154 379.685 273.838 380.447C273.522 381.209 273.36 382.025 273.36 382.85C273.36 384.516 274.022 386.113 275.199 387.291C276.377 388.468 277.974 389.13 279.64 389.13C281.306 389.13 282.903 388.468 284.081 387.291C285.258 386.113 285.92 384.516 285.92 382.85Z" stroke="#808183" stroke-width="2"/>
<path d="M70.7 395.77C66.12 405.76 61.59 415.74 56.87 425.68C56.7033 426.033 56.8167 426.207 57.21 426.2L74.58 426.01C74.801 426.007 75.0163 425.941 75.2005 425.821C75.3848 425.7 75.5303 425.53 75.62 425.33C79.1 417.717 82.5667 409.99 86.02 402.15C88.7 396.08 86.68 389.46 79.14 389.49C75.4267 389.503 72.6133 391.597 70.7 395.77Z" stroke="#808183" stroke-width="2"/>
<path d="M408.92 425.92C409.027 426.147 409.207 426.26 409.46 426.26L427.24 426.2C427.687 426.2 427.817 425.997 427.63 425.59C423.297 416.117 418.93 406.663 414.53 397.23C412.94 393.81 411.85 391 408.16 389.7C401.5 387.34 394.85 393.82 397.71 400.76C401.037 408.853 404.773 417.24 408.92 425.92Z" stroke="#808183" stroke-width="2"/>
<path d="M156.36 394.63C156.36 393.903 156.071 393.206 155.557 392.693C155.044 392.179 154.347 391.89 153.62 391.89C152.893 391.89 152.196 392.179 151.683 392.693C151.169 393.206 150.88 393.903 150.88 394.63C150.88 395.357 151.169 396.054 151.683 396.567C152.196 397.081 152.893 397.37 153.62 397.37C154.347 397.37 155.044 397.081 155.557 396.567C156.071 396.054 156.36 395.357 156.36 394.63Z" stroke="#808183" stroke-width="2"/>
<path d="M333.99 402.17C333.99 401.393 333.681 400.648 333.132 400.098C332.582 399.549 331.837 399.24 331.06 399.24C330.283 399.24 329.538 399.549 328.988 400.098C328.439 400.648 328.13 401.393 328.13 402.17C328.13 402.947 328.439 403.692 328.988 404.242C329.538 404.791 330.283 405.1 331.06 405.1C331.837 405.1 332.582 404.791 333.132 404.242C333.681 403.692 333.99 402.947 333.99 402.17Z" stroke="#808183" stroke-width="2"/>
<path d="M306.345 403.729C306.259 403.365 306.002 403.057 305.629 402.873C305.257 402.689 304.8 402.644 304.358 402.747C303.916 402.851 303.527 403.095 303.275 403.425C303.023 403.756 302.93 404.146 303.015 404.51C303.101 404.875 303.358 405.183 303.73 405.367C304.103 405.551 304.56 405.596 305.002 405.493C305.444 405.389 305.833 405.145 306.085 404.815C306.337 404.484 306.43 404.094 306.345 403.729Z" stroke="#808183" stroke-width="2"/>
<path d="M171.45 406.09C171.45 405.286 171.131 404.516 170.563 403.947C169.994 403.379 169.224 403.06 168.42 403.06C167.616 403.06 166.846 403.379 166.277 403.947C165.709 404.516 165.39 405.286 165.39 406.09C165.39 406.894 165.709 407.664 166.277 408.233C166.846 408.801 167.616 409.12 168.42 409.12C169.224 409.12 169.994 408.801 170.563 408.233C171.131 407.664 171.45 406.894 171.45 406.09Z" stroke="#808183" stroke-width="2"/>
<path d="M269.06 414.19C269.06 413.792 268.902 413.411 268.621 413.129C268.339 412.848 267.958 412.69 267.56 412.69C267.162 412.69 266.781 412.848 266.499 413.129C266.218 413.411 266.06 413.792 266.06 414.19C266.06 414.588 266.218 414.969 266.499 415.251C266.781 415.532 267.162 415.69 267.56 415.69C267.958 415.69 268.339 415.532 268.621 415.251C268.902 414.969 269.06 414.588 269.06 414.19Z" stroke="#808183" stroke-width="2"/>
<path d="M294.06 417.9C294.06 416.884 293.656 415.91 292.938 415.192C292.22 414.474 291.246 414.07 290.23 414.07C289.727 414.07 289.229 414.169 288.764 414.362C288.3 414.554 287.877 414.836 287.522 415.192C287.166 415.547 286.884 415.97 286.692 416.434C286.499 416.899 286.4 417.397 286.4 417.9C286.4 418.403 286.499 418.901 286.692 419.366C286.884 419.83 287.166 420.253 287.522 420.608C287.877 420.964 288.3 421.246 288.764 421.438C289.229 421.631 289.727 421.73 290.23 421.73C291.246 421.73 292.22 421.326 292.938 420.608C293.656 419.89 294.06 418.916 294.06 417.9Z" stroke="#808183" stroke-width="2"/>
<path d="M205.05 419.73C205.05 418.29 204.478 416.909 203.46 415.89C202.441 414.872 201.06 414.3 199.62 414.3C198.18 414.3 196.799 414.872 195.78 415.89C194.762 416.909 194.19 418.29 194.19 419.73C194.19 421.17 194.762 422.551 195.78 423.57C196.799 424.588 198.18 425.16 199.62 425.16C201.06 425.16 202.441 424.588 203.46 423.57C204.478 422.551 205.05 421.17 205.05 419.73Z" stroke="#808183" stroke-width="2"/>
<path d="M252.373 432.048C251.799 430.806 250.982 429.691 249.969 428.766C248.956 427.842 247.766 427.126 246.467 426.66C245.169 426.195 243.787 425.988 242.401 426.051C241.015 426.115 239.652 426.448 238.389 427.031C235.84 428.209 233.855 430.335 232.872 432.942C231.889 435.549 231.987 438.423 233.147 440.932C233.721 442.174 234.538 443.289 235.551 444.214C236.564 445.138 237.754 445.854 239.053 446.32C240.351 446.785 241.733 446.992 243.119 446.929C244.505 446.865 245.868 446.532 247.131 445.949C249.68 444.771 251.665 442.644 252.648 440.038C253.631 437.431 253.533 434.557 252.373 432.048Z" stroke="#808183" stroke-width="2"/>
<path d="M0 0H479V465H0V0ZM243.8 57.1C248.047 66.52 252.4 75.8967 256.86 85.23C258.753 89.1967 261.713 90.7733 265.74 89.96C270.42 89.0067 272.817 86.5667 272.93 82.64C272.99 80.76 272.157 77.93 270.43 74.15C261.677 54.9167 252.823 35.6967 243.87 16.49C243.834 16.4112 243.777 16.3443 243.704 16.2973C243.631 16.2504 243.547 16.2255 243.46 16.2255C243.373 16.2255 243.289 16.2504 243.216 16.2973C243.143 16.3443 243.086 16.4112 243.05 16.49C233.343 37.0967 223.843 57.85 214.55 78.75C213.463 81.1967 213.473 83.5433 214.58 85.79C216.82 90.35 222.44 91.45 226.64 88.89C228.84 87.54 230.52 84.08 231.42 81.94C234.993 73.44 238.82 65.1533 242.9 57.08C242.943 56.9963 243.008 56.9264 243.089 56.8783C243.17 56.8301 243.262 56.8057 243.356 56.8078C243.45 56.8099 243.542 56.8384 243.62 56.8901C243.699 56.9418 243.761 57.0145 243.8 57.1ZM306.62 51.97C306.62 51.0783 306.444 50.1954 306.103 49.3716C305.762 48.5478 305.262 47.7993 304.631 47.1687C304.001 46.5382 303.252 46.0381 302.428 45.6969C301.605 45.3556 300.722 45.18 299.83 45.18C298.029 45.18 296.302 45.8954 295.029 47.1687C293.755 48.4421 293.04 50.1692 293.04 51.97C293.04 53.7708 293.755 55.4979 295.029 56.7713C296.302 58.0446 298.029 58.76 299.83 58.76C300.722 58.76 301.605 58.5844 302.428 58.2431C303.252 57.9019 304.001 57.4018 304.631 56.7713C305.262 56.1407 305.762 55.3922 306.103 54.5684C306.444 53.7446 306.62 52.8617 306.62 51.97ZM190.258 51.7014C189.834 51.0094 189.153 50.5143 188.363 50.3248C187.574 50.1354 186.742 50.2672 186.05 50.6912L131.43 84.1624C131.088 84.3724 130.79 84.6478 130.553 84.9729C130.317 85.298 130.147 85.6664 130.054 86.0572C129.96 86.4479 129.944 86.8533 130.007 87.2502C130.07 87.6471 130.21 88.0278 130.42 88.3704L130.462 88.4386C130.886 89.1306 131.567 89.6257 132.357 89.8152C133.146 90.0046 133.978 89.8728 134.67 89.4488L189.29 55.9776C189.632 55.7676 189.93 55.4922 190.167 55.1671C190.403 54.842 190.573 54.4736 190.666 54.0828C190.76 53.6921 190.776 53.2867 190.713 52.8898C190.65 52.4929 190.51 52.1122 190.3 51.7696L190.258 51.7014ZM334.92 67.33C334.92 66.5741 334.62 65.8492 334.085 65.3147C333.551 64.7803 332.826 64.48 332.07 64.48C331.314 64.48 330.589 64.7803 330.055 65.3147C329.52 65.8492 329.22 66.5741 329.22 67.33C329.22 68.0859 329.52 68.8108 330.055 69.3453C330.589 69.8797 331.314 70.18 332.07 70.18C332.826 70.18 333.551 69.8797 334.085 69.3453C334.62 68.8108 334.92 68.0859 334.92 67.33ZM184.37 83.79C184.37 82.9599 184.04 82.1637 183.453 81.5768C182.866 80.9898 182.07 80.66 181.24 80.66C180.41 80.66 179.614 80.9898 179.027 81.5768C178.44 82.1637 178.11 82.9599 178.11 83.79C178.11 84.6201 178.44 85.4163 179.027 86.0032C179.614 86.5902 180.41 86.92 181.24 86.92C182.07 86.92 182.866 86.5902 183.453 86.0032C184.04 85.4163 184.37 84.6201 184.37 83.79ZM314.631 98.25C315.524 98.4416 316.448 98.4492 317.35 98.2724C318.251 98.0957 319.113 97.7379 319.885 97.2197C320.657 96.7014 321.325 96.0328 321.85 95.252C322.375 94.4712 322.747 93.5934 322.945 92.6689C323.346 90.8018 323.013 88.8574 322.019 87.2636C321.026 85.6697 319.454 84.5569 317.649 84.17C316.756 83.9784 315.832 83.9708 314.93 84.1476C314.029 84.3243 313.167 84.6821 312.395 85.2003C311.623 85.7186 310.955 86.3872 310.43 87.168C309.905 87.9489 309.533 88.8266 309.335 89.7511C308.934 91.6182 309.267 93.5626 310.261 95.1564C311.254 96.7503 312.826 97.8631 314.631 98.25ZM360.362 91.6115C360.104 90.8628 359.697 90.1736 359.165 89.5833C358.632 88.993 357.984 88.5131 357.257 88.1711C356.53 87.8291 355.74 87.6317 354.93 87.59C354.12 87.5484 353.307 87.6634 352.537 87.9285C350.982 88.4639 349.698 89.578 348.967 91.0257C348.235 92.4735 348.117 94.1364 348.638 95.6485C348.896 96.3972 349.303 97.0864 349.835 97.6767C350.368 98.267 351.016 98.7469 351.743 99.0889C352.47 99.4309 353.26 99.6283 354.07 99.67C354.88 99.7116 355.693 99.5966 356.463 99.3315C358.018 98.7961 359.302 97.682 360.033 96.2343C360.765 94.7865 360.883 93.1236 360.362 91.6115ZM107.28 94.5999C107.661 94.6046 108.03 94.432 108.304 94.1203C108.578 93.8086 108.734 93.3831 108.74 92.9376C108.743 92.717 108.708 92.4981 108.638 92.2934C108.568 92.0887 108.464 91.9022 108.333 91.7446C108.201 91.5869 108.044 91.4613 107.87 91.3747C107.696 91.2881 107.51 91.2424 107.321 91.2401C106.939 91.2354 106.57 91.408 106.296 91.7197C106.022 92.0314 105.866 92.4569 105.86 92.9024C105.857 93.123 105.892 93.3419 105.962 93.5466C106.032 93.7513 106.136 93.9378 106.267 94.0954C106.399 94.2531 106.556 94.3787 106.73 94.4653C106.904 94.5519 107.09 94.5976 107.28 94.5999ZM381.12 136.35C387.48 139.52 394.19 135.85 393.51 128.39C393.492 128.187 393.527 127.984 393.611 127.801C393.695 127.619 393.826 127.463 393.99 127.35L404.64 119.96C404.959 119.735 405.331 119.599 405.719 119.566C406.108 119.533 406.498 119.603 406.85 119.77C414.49 123.35 423.9 117.32 422.98 108.74C421.75 97.22 406.45 94.73 402.45 106.33C401.62 108.73 402.01 111.4 402.29 114C402.33 114.347 402.203 114.617 401.91 114.81L390.14 122.44C389.853 122.627 389.547 122.677 389.22 122.59C382.627 120.777 378.763 123.223 377.63 129.93C377.55 130.403 377.307 130.77 376.9 131.03C363.053 140.083 349.23 149.123 335.43 158.15C333.91 159.143 332.79 160.453 332.07 162.08C331.932 162.389 331.858 162.723 331.851 163.061C331.845 163.4 331.907 163.736 332.032 164.05C332.158 164.365 332.346 164.65 332.584 164.891C332.823 165.131 333.107 165.321 333.42 165.45C334.36 165.84 335.78 165.41 336.73 164.78C350.71 155.533 364.807 146.103 379.02 136.49C379.327 136.283 379.684 136.162 380.052 136.137C380.421 136.112 380.79 136.186 381.12 136.35ZM74.4205 120.533C75.8326 120.481 77.2205 120.147 78.5049 119.55C79.7894 118.954 80.9453 118.106 81.9066 117.055C82.8679 116.004 83.6158 114.771 84.1076 113.426C84.5994 112.081 84.8254 110.65 84.7728 109.216C84.7202 107.781 84.39 106.371 83.801 105.066C83.2121 103.76 82.3759 102.585 81.3402 101.608C80.3045 100.63 79.0896 99.8689 77.7649 99.3679C76.4402 98.8668 75.0316 98.6355 73.6195 98.6873C72.2074 98.7391 70.8195 99.0729 69.5351 99.6696C68.2506 100.266 67.0947 101.114 66.1334 102.165C65.1721 103.216 64.4242 104.449 63.9324 105.794C63.4406 107.139 63.2146 108.57 63.2672 110.004C63.3198 111.439 63.65 112.849 64.239 114.154C64.8279 115.46 65.6641 116.635 66.6998 117.612C67.7355 118.59 68.9504 119.351 70.2751 119.852C71.5998 120.353 73.0084 120.584 74.4205 120.533ZM280.78 105.55C276.85 103.94 271.95 106.46 270.22 110.17C269.487 111.75 269.443 113.65 270.09 115.87C271.77 121.61 275.36 129.71 282.53 128.36C288.32 127.28 291.16 122.14 288.72 116.68C287.12 113.08 284.45 107.06 280.78 105.55ZM216.514 116.962C216.967 115.976 217.222 114.911 217.263 113.827C217.305 112.743 217.133 111.662 216.756 110.645C216.38 109.627 215.807 108.694 215.07 107.898C214.333 107.102 213.446 106.459 212.461 106.006L212.37 105.964C211.385 105.511 210.319 105.256 209.236 105.215C208.152 105.173 207.07 105.345 206.053 105.721C205.035 106.098 204.102 106.671 203.306 107.408C202.51 108.145 201.867 109.031 201.414 110.017L85.0465 363.018C84.5932 364.004 84.3385 365.069 84.2969 366.153C84.2552 367.237 84.4275 368.318 84.8038 369.336C85.1801 370.353 85.7532 371.286 86.4902 372.082C87.2272 372.878 88.1137 373.521 89.0992 373.974L89.19 374.016C90.1755 374.469 91.2406 374.724 92.3245 374.765C93.4084 374.807 94.4899 374.635 95.5073 374.259C96.5246 373.882 97.4579 373.309 98.2538 372.572C99.0497 371.835 99.6926 370.949 100.146 369.963L216.514 116.962ZM253.08 118.16C253.08 115.598 252.062 113.141 250.251 111.329C248.439 109.518 245.982 108.5 243.42 108.5C240.858 108.5 238.401 109.518 236.589 111.329C234.778 113.141 233.76 115.598 233.76 118.16C233.76 120.722 234.778 123.179 236.589 124.991C238.401 126.802 240.858 127.82 243.42 127.82C245.982 127.82 248.439 126.802 250.251 124.991C252.062 123.179 253.08 120.722 253.08 118.16ZM167.51 113.09C167.51 112.273 167.186 111.49 166.608 110.912C166.03 110.334 165.247 110.01 164.43 110.01C163.613 110.01 162.83 110.334 162.252 110.912C161.674 111.49 161.35 112.273 161.35 113.09C161.35 113.907 161.674 114.69 162.252 115.268C162.83 115.846 163.613 116.17 164.43 116.17C165.247 116.17 166.03 115.846 166.608 115.268C167.186 114.69 167.51 113.907 167.51 113.09ZM117.776 128.728C119.382 129.117 121.083 128.826 122.504 127.919C123.926 127.013 124.951 125.565 125.355 123.895C125.759 122.224 125.509 120.468 124.659 119.012C123.809 117.556 122.43 116.52 120.824 116.132C119.218 115.743 117.517 116.034 116.096 116.941C114.674 117.847 113.649 119.295 113.245 120.965C112.841 122.636 113.091 124.392 113.941 125.848C114.791 127.304 116.17 128.34 117.776 128.728ZM328.174 123.376C327.847 122.51 327.172 121.816 326.299 121.447C325.425 121.077 324.424 121.062 323.516 121.405C322.608 121.748 321.868 122.421 321.457 123.276C321.046 124.131 320.999 125.098 321.326 125.964C321.653 126.83 322.328 127.524 323.201 127.893C324.075 128.263 325.076 128.278 325.984 127.935C326.892 127.592 327.632 126.919 328.043 126.064C328.454 125.209 328.501 124.242 328.174 123.376ZM151.37 139.29C151.43 138.568 151.343 137.842 151.112 137.152C150.881 136.462 150.511 135.821 150.024 135.267C149.536 134.712 148.941 134.255 148.271 133.921C147.602 133.587 146.871 133.382 146.121 133.319C145.371 133.256 144.617 133.336 143.901 133.554C143.185 133.772 142.522 134.123 141.949 134.588C141.376 135.054 140.904 135.624 140.561 136.266C140.218 136.908 140.011 137.609 139.95 138.331C139.89 139.052 139.977 139.778 140.208 140.468C140.439 141.158 140.809 141.799 141.296 142.353C141.784 142.908 142.379 143.365 143.049 143.699C143.718 144.033 144.449 144.238 145.199 144.301C145.949 144.364 146.703 144.284 147.419 144.066C148.135 143.848 148.798 143.497 149.371 143.032C149.945 142.566 150.416 141.996 150.759 141.354C151.102 140.712 151.309 140.011 151.37 139.29ZM302.409 148.876C301.461 146.842 299.744 145.269 297.635 144.502C295.527 143.734 293.2 143.836 291.166 144.784L290.84 144.936C288.806 145.884 287.233 147.602 286.466 149.71C285.698 151.818 285.8 154.145 286.748 156.179L310.271 206.624C311.219 208.658 312.936 210.231 315.045 210.998C317.153 211.766 319.48 211.664 321.514 210.716L321.84 210.564C323.874 209.616 325.447 207.898 326.214 205.79C326.982 203.682 326.88 201.355 325.932 199.321L302.409 148.876ZM426.15 148.43C426.15 147.709 425.863 147.017 425.353 146.507C424.843 145.997 424.151 145.71 423.43 145.71C422.709 145.71 422.017 145.997 421.507 146.507C420.997 147.017 420.71 147.709 420.71 148.43C420.71 149.151 420.997 149.843 421.507 150.353C422.017 150.863 422.709 151.15 423.43 151.15C424.151 151.15 424.843 150.863 425.353 150.353C425.863 149.843 426.15 149.151 426.15 148.43ZM234.48 163.32L248.3 163.28C248.784 163.279 249.258 163.418 249.665 163.678C250.073 163.939 250.397 164.311 250.6 164.75L305.89 283.59C306.042 283.914 306.109 284.27 306.085 284.627C306.061 284.983 305.947 285.328 305.753 285.63C305.56 285.931 305.293 286.179 304.978 286.35C304.662 286.522 304.309 286.611 303.95 286.61C270.697 286.397 237.353 286.423 203.92 286.69C200.26 286.723 197.683 287.04 196.19 287.64C190.61 289.9 189.16 297.12 193.51 301.34C196.74 304.49 200.01 303.86 204.28 303.86C243.08 303.9 281.877 303.933 320.67 303.96C325.6 303.96 329.86 303.2 330.84 297.98C331.093 296.6 330.793 295.007 329.94 293.2C307.92 246.473 286.113 199.643 264.52 152.71C262.47 148.24 259.01 146.17 253.89 146.15C246.217 146.123 238.527 146.1 230.82 146.08C222.59 146.06 221.12 150.19 217.77 157.45C196.843 202.837 175.823 248.187 154.71 293.5C152.37 298.53 155.37 303.26 160.61 304.17C165.363 304.997 168.93 302.86 171.31 297.76C192.11 253.12 212.903 208.473 233.69 163.82C233.843 163.487 234.107 163.32 234.48 163.32ZM91.61 149.35C91.61 148.918 91.4383 148.503 91.1326 148.197C90.8269 147.892 90.4123 147.72 89.98 147.72C89.5477 147.72 89.1331 147.892 88.8274 148.197C88.5217 148.503 88.35 148.918 88.35 149.35C88.35 149.782 88.5217 150.197 88.8274 150.503C89.1331 150.808 89.5477 150.98 89.98 150.98C90.4123 150.98 90.8269 150.808 91.1326 150.503C91.4383 150.197 91.61 149.782 91.61 149.35ZM407.79 155.52C407.79 154.761 407.489 154.034 406.952 153.498C406.416 152.961 405.689 152.66 404.93 152.66C404.171 152.66 403.444 152.961 402.908 153.498C402.371 154.034 402.07 154.761 402.07 155.52C402.07 156.279 402.371 157.006 402.908 157.542C403.444 158.079 404.171 158.38 404.93 158.38C405.689 158.38 406.416 158.079 406.952 157.542C407.489 157.006 407.79 156.279 407.79 155.52ZM105.95 161.02C105.95 160.187 105.619 159.389 105.03 158.8C104.441 158.211 103.643 157.88 102.81 157.88C101.977 157.88 101.179 158.211 100.59 158.8C100.001 159.389 99.67 160.187 99.67 161.02C99.67 161.853 100.001 162.651 100.59 163.24C101.179 163.829 101.977 164.16 102.81 164.16C103.643 164.16 104.441 163.829 105.03 163.24C105.619 162.651 105.95 161.853 105.95 161.02ZM71.69 163.51C71.69 162.168 71.1569 160.881 70.208 159.932C69.259 158.983 67.972 158.45 66.63 158.45C65.288 158.45 64.001 158.983 63.052 159.932C62.1031 160.881 61.57 162.168 61.57 163.51C61.57 164.852 62.1031 166.139 63.052 167.088C64.001 168.037 65.288 168.57 66.63 168.57C67.972 168.57 69.259 168.037 70.208 167.088C71.1569 166.139 71.69 164.852 71.69 163.51ZM385.53 167.24C385.53 166.336 385.171 165.468 384.531 164.829C383.892 164.189 383.024 163.83 382.12 163.83C381.672 163.83 381.229 163.918 380.815 164.09C380.401 164.261 380.025 164.512 379.709 164.829C379.392 165.145 379.141 165.521 378.97 165.935C378.798 166.349 378.71 166.792 378.71 167.24C378.71 167.688 378.798 168.131 378.97 168.545C379.141 168.959 379.392 169.335 379.709 169.651C380.025 169.968 380.401 170.219 380.815 170.39C381.229 170.562 381.672 170.65 382.12 170.65C383.024 170.65 383.892 170.291 384.531 169.651C385.171 169.012 385.53 168.144 385.53 167.24ZM100.31 195.63C94.4833 191.01 89.33 191.147 84.85 196.04C81.9 199.27 81.08 203.4 82.92 207.31C86.75 215.43 99.26 215.28 102.22 206.21C102.81 204.42 102.9 201.74 104.69 200.64C116.697 193.2 128.753 185.403 140.86 177.25C141.349 176.922 141.687 176.412 141.801 175.834C141.915 175.255 141.796 174.653 141.47 174.16L141.1 173.61C140.087 172.09 138.807 171.817 137.26 172.79L101.01 195.66C100.77 195.813 100.537 195.803 100.31 195.63ZM425.04 178.954C425.398 178.856 425.697 178.6 425.872 178.243C426.046 177.886 426.082 177.457 425.97 177.051C425.915 176.849 425.826 176.659 425.707 176.492C425.588 176.324 425.443 176.182 425.278 176.074C425.114 175.966 424.934 175.894 424.749 175.862C424.564 175.829 424.378 175.838 424.2 175.886C423.842 175.984 423.543 176.24 423.368 176.597C423.194 176.954 423.158 177.383 423.27 177.789C423.325 177.991 423.414 178.181 423.533 178.348C423.652 178.516 423.797 178.658 423.962 178.766C424.126 178.874 424.306 178.946 424.491 178.978C424.676 179.01 424.862 179.002 425.04 178.954ZM356.59 185.29C356.59 184.455 356.258 183.653 355.667 183.063C355.077 182.472 354.275 182.14 353.44 182.14C352.605 182.14 351.803 182.472 351.213 183.063C350.622 183.653 350.29 184.455 350.29 185.29C350.29 186.125 350.622 186.927 351.213 187.517C351.803 188.108 352.605 188.44 353.44 188.44C354.275 188.44 355.077 188.108 355.667 187.517C356.258 186.927 356.59 186.125 356.59 185.29ZM411.26 190.15C411.26 188.559 410.628 187.033 409.503 185.907C408.377 184.782 406.851 184.15 405.26 184.15C403.669 184.15 402.143 184.782 401.017 185.907C399.892 187.033 399.26 188.559 399.26 190.15C399.26 191.741 399.892 193.267 401.017 194.393C402.143 195.518 403.669 196.15 405.26 196.15C406.851 196.15 408.377 195.518 409.503 194.393C410.628 193.267 411.26 191.741 411.26 190.15ZM60.6542 193.358C60.7156 192.942 60.6909 192.518 60.5816 192.109C60.4722 191.701 60.2804 191.316 60.017 190.977C59.7536 190.637 59.4238 190.35 59.0464 190.132C58.669 189.914 58.2514 189.768 57.8175 189.704C57.3836 189.64 56.9418 189.659 56.5174 189.759C56.0931 189.858 55.6944 190.038 55.3441 190.286C54.9939 190.535 54.699 190.848 54.4762 191.208C54.2534 191.567 54.1072 191.966 54.0458 192.382C53.9844 192.798 54.0091 193.222 54.1184 193.631C54.2278 194.039 54.4196 194.424 54.683 194.763C54.9464 195.103 55.2762 195.39 55.6536 195.608C56.031 195.826 56.4486 195.972 56.8825 196.036C57.3164 196.1 57.7582 196.081 58.1826 195.981C58.6069 195.882 59.0056 195.702 59.3559 195.454C59.7061 195.205 60.001 194.892 60.2238 194.532C60.4466 194.173 60.5928 193.774 60.6542 193.358ZM244.04 199.27C244.04 198.527 243.745 197.815 243.22 197.29C242.695 196.765 241.983 196.47 241.24 196.47C240.497 196.47 239.785 196.765 239.26 197.29C238.735 197.815 238.44 198.527 238.44 199.27C238.44 200.013 238.735 200.725 239.26 201.25C239.785 201.775 240.497 202.07 241.24 202.07C241.983 202.07 242.695 201.775 243.22 201.25C243.745 200.725 244.04 200.013 244.04 199.27ZM372.26 212.22C372.26 211.459 371.958 210.729 371.419 210.191C370.881 209.652 370.151 209.35 369.39 209.35C368.629 209.35 367.899 209.652 367.361 210.191C366.822 210.729 366.52 211.459 366.52 212.22C366.52 212.981 366.822 213.711 367.361 214.249C367.899 214.788 368.629 215.09 369.39 215.09C370.151 215.09 370.881 214.788 371.419 214.249C371.958 213.711 372.26 212.981 372.26 212.22ZM125.554 214.172C125.427 213.454 124.99 212.821 124.339 212.412C123.688 212.003 122.876 211.852 122.082 211.992C121.288 212.132 120.577 212.551 120.105 213.158C119.634 213.765 119.44 214.51 119.566 215.228C119.693 215.946 120.13 216.579 120.781 216.988C121.432 217.397 122.243 217.548 123.037 217.408C123.832 217.268 124.543 216.849 125.015 216.242C125.486 215.635 125.68 214.89 125.554 214.172ZM63.43 218.57C63.43 218.146 63.2614 217.739 62.9614 217.439C62.6613 217.139 62.2543 216.97 61.83 216.97C61.4057 216.97 60.9987 217.139 60.6986 217.439C60.3986 217.739 60.23 218.146 60.23 218.57C60.23 218.994 60.3986 219.401 60.6986 219.701C60.9987 220.001 61.4057 220.17 61.83 220.17C62.2543 220.17 62.6613 220.001 62.9614 219.701C63.2614 219.401 63.43 218.994 63.43 218.57ZM31.1999 240.868C33.9791 241.082 36.7319 240.15 38.8528 238.278C40.9737 236.407 42.2888 233.747 42.509 230.886C42.7291 228.025 41.8363 225.196 40.0267 223.022C38.2172 220.847 35.6393 219.506 32.8601 219.292C30.0809 219.078 27.3281 220.01 25.2072 221.882C23.0863 223.753 21.7712 226.413 21.551 229.274C21.3309 232.135 22.2237 234.964 24.0333 237.138C25.8428 239.313 28.4207 240.654 31.1999 240.868ZM416.21 249.11L433.35 237.78C433.584 237.624 433.866 237.552 434.147 237.578C434.429 237.603 434.695 237.724 434.9 237.92C441.17 244 452.35 239.81 453.51 231.52C454.77 222.56 444.55 215.85 436.72 221.21C433.213 223.61 431.573 226.893 431.8 231.06C431.82 231.373 431.7 231.62 431.44 231.8L412.78 244.6C412.533 244.773 412.29 244.767 412.05 244.58C410.51 243.4 408.923 243.02 407.29 243.44C402.53 244.653 399.997 247.8 399.69 252.88C399.67 253.233 399.513 253.513 399.22 253.72L381.74 266.23C380.113 267.397 379.833 268.823 380.9 270.51L381.27 271.1C381.434 271.359 381.648 271.581 381.9 271.755C382.153 271.928 382.438 272.048 382.738 272.108C383.038 272.168 383.347 272.166 383.647 272.103C383.946 272.04 384.23 271.916 384.48 271.74C390.673 267.36 395.997 263.437 400.45 259.97C401.46 259.19 403.1 258.82 404.54 259.15C411.17 260.69 416.03 256.79 415.78 249.96C415.767 249.6 415.91 249.317 416.21 249.11ZM396.35 224.99C396.35 224.537 396.261 224.088 396.087 223.67C395.914 223.251 395.66 222.871 395.34 222.55C395.019 222.23 394.639 221.976 394.22 221.803C393.802 221.629 393.353 221.54 392.9 221.54C391.985 221.54 391.107 221.903 390.46 222.55C389.813 223.197 389.45 224.075 389.45 224.99C389.45 225.905 389.813 226.783 390.46 227.43C391.107 228.077 391.985 228.44 392.9 228.44C393.353 228.44 393.802 228.351 394.22 228.177C394.639 228.004 395.019 227.75 395.34 227.43C395.66 227.109 395.914 226.729 396.087 226.31C396.261 225.892 396.35 225.443 396.35 224.99ZM251.34 233.68C251.34 231.187 250.35 228.796 248.587 227.033C246.824 225.27 244.433 224.28 241.94 224.28C239.447 224.28 237.056 225.27 235.293 227.033C233.53 228.796 232.54 231.187 232.54 233.68C232.54 236.173 233.53 238.564 235.293 240.327C237.056 242.09 239.447 243.08 241.94 243.08C244.433 243.08 246.824 242.09 248.587 240.327C250.35 238.564 251.34 236.173 251.34 233.68ZM340.336 232.114C339.398 230.046 337.678 228.436 335.553 227.637C333.428 226.838 331.072 226.917 329.005 227.854L328.841 227.929C327.817 228.393 326.895 229.055 326.127 229.875C325.359 230.696 324.76 231.66 324.364 232.712C323.969 233.765 323.784 234.885 323.822 236.008C323.859 237.132 324.117 238.237 324.582 239.26L383.664 369.506C384.602 371.574 386.322 373.184 388.447 373.983C390.572 374.782 392.928 374.703 394.995 373.766L395.159 373.691C396.183 373.227 397.105 372.565 397.873 371.745C398.641 370.924 399.24 369.96 399.636 368.908C400.031 367.855 400.216 366.736 400.178 365.612C400.141 364.488 399.883 363.383 399.418 362.36L340.336 232.114ZM70.42 231.41C70.42 231.012 70.262 230.631 69.9807 230.349C69.6994 230.068 69.3178 229.91 68.92 229.91C68.5222 229.91 68.1406 230.068 67.8593 230.349C67.578 230.631 67.42 231.012 67.42 231.41C67.42 231.808 67.578 232.189 67.8593 232.471C68.1406 232.752 68.5222 232.91 68.92 232.91C69.3178 232.91 69.6994 232.752 69.9807 232.471C70.262 232.189 70.42 231.808 70.42 231.41ZM99.79 243.58C99.79 242.764 99.6294 241.957 99.3173 241.204C99.0052 240.45 98.5478 239.766 97.9711 239.189C97.3945 238.612 96.7099 238.155 95.9565 237.843C95.203 237.531 94.3955 237.37 93.58 237.37C91.933 237.37 90.3535 238.024 89.1889 239.189C88.0243 240.353 87.37 241.933 87.37 243.58C87.37 245.227 88.0243 246.807 89.1889 247.971C90.3535 249.136 91.933 249.79 93.58 249.79C94.3955 249.79 95.203 249.629 95.9565 249.317C96.7099 249.005 97.3945 248.548 97.9711 247.971C98.5478 247.394 99.0052 246.71 99.3173 245.956C99.6294 245.203 99.79 244.396 99.79 243.58ZM376.33 241.51C376.33 240.751 376.029 240.024 375.492 239.488C374.956 238.951 374.229 238.65 373.47 238.65C372.711 238.65 371.984 238.951 371.448 239.488C370.911 240.024 370.61 240.751 370.61 241.51C370.61 242.269 370.911 242.996 371.448 243.532C371.984 244.069 372.711 244.37 373.47 244.37C374.229 244.37 374.956 244.069 375.492 243.532C376.029 242.996 376.33 242.269 376.33 241.51ZM70.94 260.02C70.94 259.259 70.6376 258.529 70.0994 257.991C69.5612 257.452 68.8312 257.15 68.07 257.15C67.3088 257.15 66.5788 257.452 66.0406 257.991C65.5024 258.529 65.2 259.259 65.2 260.02C65.2 260.781 65.5024 261.511 66.0406 262.049C66.5788 262.588 67.3088 262.89 68.07 262.89C68.8312 262.89 69.5612 262.588 70.0994 262.049C70.6376 261.511 70.94 260.781 70.94 260.02ZM225.46 263.74C225.46 263.378 225.389 263.019 225.25 262.684C225.111 262.349 224.908 262.045 224.652 261.788C224.395 261.532 224.091 261.329 223.756 261.19C223.421 261.051 223.062 260.98 222.7 260.98C221.968 260.98 221.266 261.271 220.748 261.788C220.231 262.306 219.94 263.008 219.94 263.74C219.94 264.472 220.231 265.174 220.748 265.692C221.266 266.209 221.968 266.5 222.7 266.5C223.062 266.5 223.421 266.429 223.756 266.29C224.091 266.151 224.395 265.948 224.652 265.692C224.908 265.435 225.111 265.131 225.25 264.796C225.389 264.461 225.46 264.102 225.46 263.74ZM269.683 264.064C269.778 263.392 269.58 262.706 269.135 262.159C268.689 261.612 268.031 261.247 267.306 261.145C266.947 261.094 266.583 261.11 266.233 261.191C265.884 261.272 265.556 261.416 265.269 261.616C264.982 261.816 264.742 262.067 264.561 262.355C264.381 262.643 264.264 262.963 264.217 263.296C264.122 263.968 264.32 264.654 264.765 265.201C265.211 265.748 265.869 266.113 266.594 266.215C266.953 266.266 267.317 266.25 267.667 266.169C268.016 266.088 268.344 265.944 268.631 265.744C268.918 265.544 269.158 265.293 269.339 265.005C269.519 264.717 269.636 264.397 269.683 264.064ZM431.971 268.072C432.14 268.139 432.321 268.166 432.506 268.155C432.69 268.143 432.874 268.091 433.046 268.003C433.218 267.915 433.376 267.792 433.509 267.641C433.643 267.49 433.75 267.314 433.825 267.124C433.976 266.738 433.985 266.316 433.851 265.949C433.717 265.582 433.45 265.301 433.109 265.168C432.94 265.101 432.759 265.074 432.574 265.085C432.39 265.097 432.206 265.149 432.034 265.237C431.862 265.325 431.704 265.448 431.571 265.599C431.437 265.75 431.33 265.926 431.255 266.116C431.104 266.502 431.095 266.924 431.229 267.291C431.363 267.658 431.63 267.939 431.971 268.072ZM68.64 301.85L50.88 271.42C50.7206 271.149 50.507 270.914 50.2523 270.729C49.9976 270.545 49.7074 270.415 49.3997 270.347C49.092 270.28 48.7735 270.276 48.4638 270.337C48.1542 270.398 47.8602 270.521 47.6 270.7L46.9 271.18C45.2 272.353 44.8767 273.827 45.93 275.6L62.93 304.17C63.1107 304.475 63.2045 304.823 63.201 305.176C63.1974 305.529 63.0968 305.873 62.91 306.17C61.2433 308.85 60.81 311.47 61.61 314.03C64.59 323.57 79.47 320.78 79 311.43C78.7133 305.603 75.4667 302.533 69.26 302.22C68.9867 302.207 68.78 302.083 68.64 301.85ZM93.213 281.905C93.1876 281.533 93.0846 281.169 92.9097 280.836C92.7349 280.503 92.4916 280.205 92.1939 279.961C91.8962 279.717 91.5498 279.531 91.1745 279.414C90.7993 279.296 90.4025 279.25 90.0068 279.277C89.2077 279.331 88.4617 279.682 87.9329 280.252C87.4041 280.822 87.1358 281.564 87.187 282.315C87.2124 282.688 87.3154 283.051 87.4903 283.384C87.6651 283.717 87.9084 284.015 88.2061 284.259C88.5038 284.503 88.8502 284.689 89.2255 284.806C89.6007 284.924 89.9975 284.97 90.3932 284.943C91.1923 284.889 91.9383 284.538 92.4671 283.968C92.9959 283.398 93.2642 282.656 93.213 281.905ZM429.9 288.98C429.9 287.391 429.269 285.868 428.146 284.744C427.022 283.621 425.499 282.99 423.91 282.99C422.321 282.99 420.798 283.621 419.674 284.744C418.551 285.868 417.92 287.391 417.92 288.98C417.92 290.569 418.551 292.092 419.674 293.216C420.798 294.339 422.321 294.97 423.91 294.97C425.499 294.97 427.022 294.339 428.146 293.216C429.269 292.092 429.9 290.569 429.9 288.98ZM394.185 290.609C394.076 290.466 393.938 290.346 393.78 290.258C393.621 290.17 393.444 290.114 393.259 290.095C393.074 290.075 392.885 290.091 392.702 290.143C392.519 290.195 392.347 290.282 392.194 290.397C392.041 290.513 391.911 290.656 391.811 290.818C391.711 290.979 391.644 291.157 391.612 291.34C391.581 291.523 391.586 291.709 391.628 291.885C391.67 292.062 391.747 292.227 391.855 292.371C391.964 292.514 392.102 292.634 392.26 292.722C392.419 292.81 392.596 292.866 392.781 292.885C392.966 292.905 393.155 292.888 393.338 292.837C393.521 292.785 393.693 292.698 393.846 292.583C393.999 292.467 394.129 292.324 394.229 292.163C394.329 292.001 394.396 291.823 394.428 291.64C394.459 291.457 394.454 291.271 394.412 291.095C394.37 290.918 394.293 290.753 394.185 290.609ZM42.9579 304.149C43.3344 304.159 43.6998 303.999 43.9739 303.704C44.248 303.409 44.4083 303.004 44.4195 302.577C44.425 302.366 44.3938 302.156 44.3276 301.958C44.2613 301.761 44.1614 301.581 44.0335 301.428C43.9056 301.275 43.7522 301.153 43.5821 301.067C43.412 300.982 43.2285 300.935 43.0421 300.931C42.6656 300.921 42.3002 301.081 42.0261 301.376C41.752 301.671 41.5917 302.076 41.5805 302.503C41.575 302.714 41.6062 302.924 41.6724 303.122C41.7387 303.319 41.8386 303.499 41.9665 303.652C42.0944 303.805 42.2478 303.927 42.4179 304.013C42.588 304.098 42.7715 304.145 42.9579 304.149ZM410.23 317.45C410.23 316.729 409.943 316.037 409.433 315.527C408.923 315.017 408.231 314.73 407.51 314.73C406.789 314.73 406.097 315.017 405.587 315.527C405.077 316.037 404.79 316.729 404.79 317.45C404.79 318.171 405.077 318.863 405.587 319.373C406.097 319.883 406.789 320.17 407.51 320.17C408.231 320.17 408.923 319.883 409.433 319.373C409.943 318.863 410.23 318.171 410.23 317.45ZM94.35 425.88C94.2967 426 94.3367 426.06 94.47 426.06L111.96 425.97C112.227 425.963 112.42 425.84 112.54 425.6C124.55 400.21 135.66 374.41 147.78 349.08C150.59 343.19 153.72 339 160.25 339C214.057 338.993 267.863 338.997 321.67 339.01C326.37 339.01 330.92 340.56 332.87 344.68C345.437 371.273 357.897 398.057 370.25 425.03C370.4 425.358 370.64 425.636 370.943 425.831C371.247 426.026 371.599 426.13 371.96 426.13L389 426.04C389.051 426.04 389.101 426.027 389.145 426.002C389.189 425.978 389.227 425.942 389.254 425.9C389.281 425.857 389.296 425.807 389.299 425.757C389.302 425.706 389.292 425.656 389.27 425.61C376.43 396.997 363.637 369.067 350.89 341.82C347.34 334.23 343.64 322.35 334 322.27C303.373 322.01 242.373 321.97 151 322.15C143.68 322.16 140.03 325.5 136.97 332.16C122.943 362.647 108.737 393.887 94.35 425.88ZM63 341.01C63 340.225 62.6881 339.472 62.133 338.917C61.5779 338.362 60.825 338.05 60.04 338.05C59.255 338.05 58.5021 338.362 57.947 338.917C57.3919 339.472 57.08 340.225 57.08 341.01C57.08 341.795 57.3919 342.548 57.947 343.103C58.5021 343.658 59.255 343.97 60.04 343.97C60.825 343.97 61.5779 343.658 62.133 343.103C62.6881 342.548 63 341.795 63 341.01ZM425.89 341.15C425.89 340.368 425.579 339.617 425.026 339.064C424.473 338.511 423.722 338.2 422.94 338.2C422.158 338.2 421.407 338.511 420.854 339.064C420.301 339.617 419.99 340.368 419.99 341.15C419.99 341.932 420.301 342.683 420.854 343.236C421.407 343.789 422.158 344.1 422.94 344.1C423.722 344.1 424.473 343.789 425.026 343.236C425.579 342.683 425.89 341.932 425.89 341.15ZM180.68 357.06C180.68 356.402 180.419 355.771 179.954 355.306C179.489 354.841 178.858 354.58 178.2 354.58C177.542 354.58 176.911 354.841 176.446 355.306C175.981 355.771 175.72 356.402 175.72 357.06C175.72 357.718 175.981 358.349 176.446 358.814C176.911 359.279 177.542 359.54 178.2 359.54C178.858 359.54 179.489 359.279 179.954 358.814C180.419 358.349 180.68 357.718 180.68 357.06ZM217.73 356.55C217.73 356.078 217.542 355.625 217.209 355.291C216.875 354.958 216.422 354.77 215.95 354.77C215.478 354.77 215.025 354.958 214.691 355.291C214.358 355.625 214.17 356.078 214.17 356.55C214.17 357.022 214.358 357.475 214.691 357.809C215.025 358.142 215.478 358.33 215.95 358.33C216.422 358.33 216.875 358.142 217.209 357.809C217.542 357.475 217.73 357.022 217.73 356.55ZM247.82 368.07C247.82 366.534 247.21 365.062 246.124 363.976C245.038 362.89 243.566 362.28 242.03 362.28C240.494 362.28 239.022 362.89 237.936 363.976C236.85 365.062 236.24 366.534 236.24 368.07C236.24 369.606 236.85 371.078 237.936 372.164C239.022 373.25 240.494 373.86 242.03 373.86C243.566 373.86 245.038 373.25 246.124 372.164C247.21 371.078 247.82 369.606 247.82 368.07ZM318.77 373.35C318.77 372.569 318.616 371.795 318.317 371.073C318.018 370.351 317.58 369.695 317.027 369.143C316.475 368.59 315.819 368.152 315.097 367.853C314.375 367.554 313.601 367.4 312.82 367.4C312.039 367.4 311.265 367.554 310.543 367.853C309.821 368.152 309.165 368.59 308.613 369.143C308.06 369.695 307.622 370.351 307.323 371.073C307.024 371.795 306.87 372.569 306.87 373.35C306.87 374.928 307.497 376.441 308.613 377.557C309.729 378.673 311.242 379.3 312.82 379.3C314.398 379.3 315.911 378.673 317.027 377.557C318.143 376.441 318.77 374.928 318.77 373.35ZM240.22 399.076C240.352 398.687 240.407 398.275 240.38 397.865C240.354 397.455 240.247 397.054 240.065 396.685C239.884 396.316 239.632 395.987 239.323 395.715C239.014 395.444 238.655 395.236 238.266 395.104L178.078 374.614C177.292 374.347 176.432 374.402 175.687 374.769C174.942 375.135 174.373 375.783 174.106 376.569L174.08 376.644C173.948 377.033 173.893 377.445 173.92 377.855C173.946 378.265 174.053 378.666 174.235 379.035C174.416 379.404 174.668 379.733 174.977 380.005C175.286 380.276 175.645 380.484 176.034 380.616L236.222 401.106C237.008 401.373 237.868 401.318 238.613 400.951C239.358 400.585 239.927 399.937 240.194 399.151L240.22 399.076ZM285.92 382.85C285.92 382.025 285.758 381.209 285.442 380.447C285.126 379.685 284.664 378.993 284.081 378.409C283.497 377.826 282.805 377.364 282.043 377.048C281.281 376.732 280.465 376.57 279.64 376.57C278.815 376.57 277.999 376.732 277.237 377.048C276.475 377.364 275.783 377.826 275.199 378.409C274.616 378.993 274.154 379.685 273.838 380.447C273.522 381.209 273.36 382.025 273.36 382.85C273.36 384.516 274.022 386.113 275.199 387.291C276.377 388.468 277.974 389.13 279.64 389.13C281.306 389.13 282.903 388.468 284.081 387.291C285.258 386.113 285.92 384.516 285.92 382.85ZM70.7 395.77C66.12 405.76 61.59 415.74 56.87 425.68C56.7033 426.033 56.8167 426.207 57.21 426.2L74.58 426.01C74.801 426.007 75.0163 425.941 75.2005 425.821C75.3848 425.7 75.5303 425.53 75.62 425.33C79.1 417.717 82.5667 409.99 86.02 402.15C88.7 396.08 86.68 389.46 79.14 389.49C75.4267 389.503 72.6133 391.597 70.7 395.77ZM408.92 425.92C409.027 426.147 409.207 426.26 409.46 426.26L427.24 426.2C427.687 426.2 427.817 425.997 427.63 425.59C423.297 416.117 418.93 406.663 414.53 397.23C412.94 393.81 411.85 391 408.16 389.7C401.5 387.34 394.85 393.82 397.71 400.76C401.037 408.853 404.773 417.24 408.92 425.92ZM156.36 394.63C156.36 393.903 156.071 393.206 155.557 392.693C155.044 392.179 154.347 391.89 153.62 391.89C152.893 391.89 152.196 392.179 151.683 392.693C151.169 393.206 150.88 393.903 150.88 394.63C150.88 395.357 151.169 396.054 151.683 396.567C152.196 397.081 152.893 397.37 153.62 397.37C154.347 397.37 155.044 397.081 155.557 396.567C156.071 396.054 156.36 395.357 156.36 394.63ZM333.99 402.17C333.99 401.393 333.681 400.648 333.132 400.098C332.582 399.549 331.837 399.24 331.06 399.24C330.283 399.24 329.538 399.549 328.988 400.098C328.439 400.648 328.13 401.393 328.13 402.17C328.13 402.947 328.439 403.692 328.988 404.242C329.538 404.791 330.283 405.1 331.06 405.1C331.837 405.1 332.582 404.791 333.132 404.242C333.681 403.692 333.99 402.947 333.99 402.17ZM306.345 403.729C306.259 403.365 306.002 403.057 305.629 402.873C305.257 402.689 304.8 402.644 304.358 402.747C303.916 402.851 303.527 403.095 303.275 403.425C303.023 403.756 302.93 404.146 303.015 404.51C303.101 404.875 303.358 405.183 303.73 405.367C304.103 405.551 304.56 405.596 305.002 405.493C305.444 405.389 305.833 405.145 306.085 404.815C306.337 404.484 306.43 404.094 306.345 403.729ZM171.45 406.09C171.45 405.286 171.131 404.516 170.563 403.947C169.994 403.379 169.224 403.06 168.42 403.06C167.616 403.06 166.846 403.379 166.277 403.947C165.709 404.516 165.39 405.286 165.39 406.09C165.39 406.894 165.709 407.664 166.277 408.233C166.846 408.801 167.616 409.12 168.42 409.12C169.224 409.12 169.994 408.801 170.563 408.233C171.131 407.664 171.45 406.894 171.45 406.09ZM269.06 414.19C269.06 413.792 268.902 413.411 268.621 413.129C268.339 412.848 267.958 412.69 267.56 412.69C267.162 412.69 266.781 412.848 266.499 413.129C266.218 413.411 266.06 413.792 266.06 414.19C266.06 414.588 266.218 414.969 266.499 415.251C266.781 415.532 267.162 415.69 267.56 415.69C267.958 415.69 268.339 415.532 268.621 415.251C268.902 414.969 269.06 414.588 269.06 414.19ZM294.06 417.9C294.06 416.884 293.656 415.91 292.938 415.192C292.22 414.474 291.246 414.07 290.23 414.07C289.727 414.07 289.229 414.169 288.764 414.362C288.3 414.554 287.877 414.836 287.522 415.192C287.166 415.547 286.884 415.97 286.692 416.434C286.499 416.899 286.4 417.397 286.4 417.9C286.4 418.403 286.499 418.901 286.692 419.366C286.884 419.83 287.166 420.253 287.522 420.608C287.877 420.964 288.3 421.246 288.764 421.438C289.229 421.631 289.727 421.73 290.23 421.73C291.246 421.73 292.22 421.326 292.938 420.608C293.656 419.89 294.06 418.916 294.06 417.9ZM205.05 419.73C205.05 418.29 204.478 416.909 203.46 415.89C202.441 414.872 201.06 414.3 199.62 414.3C198.18 414.3 196.799 414.872 195.78 415.89C194.762 416.909 194.19 418.29 194.19 419.73C194.19 421.17 194.762 422.551 195.78 423.57C196.799 424.588 198.18 425.16 199.62 425.16C201.06 425.16 202.441 424.588 203.46 423.57C204.478 422.551 205.05 421.17 205.05 419.73ZM252.373 432.048C251.799 430.806 250.982 429.691 249.969 428.766C248.956 427.842 247.766 427.126 246.467 426.66C245.169 426.195 243.787 425.988 242.401 426.051C241.015 426.115 239.652 426.448 238.389 427.031C235.84 428.209 233.855 430.336 232.872 432.942C231.889 435.549 231.987 438.423 233.147 440.932C233.721 442.174 234.538 443.289 235.551 444.214C236.564 445.138 237.754 445.854 239.053 446.32C240.351 446.785 241.733 446.992 243.119 446.929C244.505 446.865 245.868 446.532 247.131 445.949C249.68 444.771 251.665 442.645 252.648 440.038C253.631 437.431 253.533 434.557 252.373 432.048Z" fill="#010307"/>
<path d="M243.8 57.1C243.761 57.0145 243.699 56.9418 243.62 56.8901C243.542 56.8384 243.45 56.8099 243.356 56.8078C243.262 56.8057 243.17 56.8301 243.089 56.8783C243.008 56.9264 242.943 56.9963 242.9 57.08C238.82 65.1533 234.993 73.44 231.42 81.94C230.52 84.08 228.84 87.54 226.64 88.89C222.44 91.45 216.82 90.35 214.58 85.79C213.473 83.5433 213.463 81.1967 214.55 78.75C223.843 57.85 233.343 37.0967 243.05 16.49C243.086 16.4112 243.143 16.3443 243.216 16.2973C243.289 16.2504 243.373 16.2255 243.46 16.2255C243.547 16.2255 243.631 16.2504 243.704 16.2973C243.777 16.3443 243.834 16.4112 243.87 16.49C252.823 35.6967 261.677 54.9167 270.43 74.15C272.157 77.93 272.99 80.76 272.93 82.64C272.817 86.5667 270.42 89.0067 265.74 89.96C261.713 90.7733 258.753 89.1967 256.86 85.23C252.4 75.8967 248.047 66.52 243.8 57.1Z" fill="white"/>
<path d="M299.83 58.76C303.58 58.76 306.62 55.72 306.62 51.97C306.62 48.22 303.58 45.18 299.83 45.18C296.08 45.18 293.04 48.22 293.04 51.97C293.04 55.72 296.08 58.76 299.83 58.76Z" fill="white"/>
<path d="M186.05 50.6912L131.43 84.1624C129.989 85.0455 129.537 86.9294 130.42 88.3704L130.462 88.4386C131.345 89.8795 133.229 90.3318 134.67 89.4488L189.29 55.9776C190.731 55.0945 191.183 53.2106 190.3 51.7696L190.258 51.7014C189.375 50.2605 187.491 49.8082 186.05 50.6912Z" fill="white"/>
<path d="M332.07 70.18C333.644 70.18 334.92 68.904 334.92 67.33C334.92 65.756 333.644 64.48 332.07 64.48C330.496 64.48 329.22 65.756 329.22 67.33C329.22 68.904 330.496 70.18 332.07 70.18Z" fill="white"/>
<path d="M181.24 86.92C182.969 86.92 184.37 85.5187 184.37 83.79C184.37 82.0613 182.969 80.66 181.24 80.66C179.511 80.66 178.11 82.0613 178.11 83.79C178.11 85.5187 179.511 86.92 181.24 86.92Z" fill="white"/>
<path d="M309.335 89.7511C308.501 93.6392 310.872 97.4443 314.631 98.25C318.389 99.0558 322.112 96.5571 322.945 92.6689C323.779 88.7808 321.408 84.9757 317.649 84.17C313.891 83.3642 310.168 85.8629 309.335 89.7511Z" fill="white"/>
<path d="M356.463 99.3315C359.701 98.2167 361.446 94.7603 360.362 91.6115C359.278 88.4626 355.774 86.8137 352.537 87.9285C349.299 89.0433 347.554 92.4997 348.638 95.6485C349.722 98.7974 353.226 100.446 356.463 99.3315Z" fill="white"/>
<path d="M105.86 92.9024C105.849 93.8302 106.484 94.5902 107.279 94.5999C108.075 94.6096 108.729 93.8654 108.74 92.9376C108.751 92.0098 108.116 91.2498 107.321 91.2401C106.525 91.2304 105.871 91.9746 105.86 92.9024Z" fill="white"/>
<path d="M381.12 136.35C380.79 136.186 380.421 136.112 380.052 136.137C379.684 136.162 379.327 136.283 379.02 136.49C364.807 146.103 350.71 155.533 336.73 164.78C335.78 165.41 334.36 165.84 333.42 165.45C333.107 165.321 332.823 165.131 332.584 164.891C332.346 164.65 332.158 164.365 332.032 164.05C331.907 163.736 331.845 163.4 331.851 163.061C331.858 162.723 331.932 162.389 332.07 162.08C332.79 160.453 333.91 159.143 335.43 158.15C349.23 149.123 363.053 140.083 376.9 131.03C377.307 130.77 377.55 130.403 377.63 129.93C378.763 123.223 382.627 120.777 389.22 122.59C389.547 122.677 389.853 122.627 390.14 122.44L401.91 114.81C402.203 114.617 402.33 114.347 402.29 114C402.01 111.4 401.62 108.73 402.45 106.33C406.45 94.73 421.75 97.22 422.98 108.74C423.9 117.32 414.49 123.35 406.85 119.77C406.498 119.603 406.108 119.533 405.719 119.566C405.331 119.599 404.959 119.735 404.64 119.96L393.99 127.35C393.826 127.463 393.695 127.619 393.611 127.801C393.527 127.984 393.492 128.187 393.51 128.39C394.19 135.85 387.48 139.52 381.12 136.35Z" fill="white"/>
<path d="M63.2672 110.004C63.4884 116.037 68.4819 120.75 74.4205 120.533C80.3591 120.315 84.994 115.248 84.7728 109.216C84.5516 103.183 79.5581 98.4696 73.6195 98.6873C67.6809 98.9051 63.046 103.972 63.2672 110.004Z" fill="white"/>
<path d="M270.22 110.17C271.95 106.46 276.85 103.94 280.78 105.55C284.45 107.06 287.12 113.08 288.72 116.68C291.16 122.14 288.32 127.28 282.53 128.36C275.36 129.71 271.77 121.61 270.09 115.87C269.443 113.65 269.487 111.75 270.22 110.17Z" fill="white"/>
<path d="M212.461 106.006L212.37 105.964C208.225 104.058 203.32 105.872 201.414 110.017L85.0465 363.018C83.1402 367.163 84.9547 372.068 89.0992 373.974L89.19 374.016C93.3345 375.922 98.2397 374.108 100.146 369.963L216.514 116.962C218.42 112.817 216.605 107.912 212.461 106.006Z" fill="white"/>
<path d="M243.42 127.82C248.755 127.82 253.08 123.495 253.08 118.16C253.08 112.825 248.755 108.5 243.42 108.5C238.085 108.5 233.76 112.825 233.76 118.16C233.76 123.495 238.085 127.82 243.42 127.82Z" fill="white"/>
<path d="M164.43 116.17C166.131 116.17 167.51 114.791 167.51 113.09C167.51 111.389 166.131 110.01 164.43 110.01C162.729 110.01 161.35 111.389 161.35 113.09C161.35 114.791 162.729 116.17 164.43 116.17Z" fill="white"/>
<path d="M113.245 120.965C112.403 124.444 114.432 127.919 117.776 128.728C121.121 129.537 124.514 127.373 125.355 123.895C126.197 120.416 124.168 116.941 120.824 116.132C117.479 115.323 114.086 117.487 113.245 120.965Z" fill="white"/>
<path d="M325.984 127.935C327.875 127.22 328.855 125.179 328.174 123.376C327.492 121.573 325.407 120.691 323.516 121.405C321.626 122.12 320.645 124.161 321.326 125.964C322.008 127.767 324.093 128.649 325.984 127.935Z" fill="white"/>
<path d="M145.199 144.301C148.352 144.565 151.115 142.322 151.37 139.289C151.625 136.257 149.275 133.584 146.121 133.319C142.968 133.055 140.205 135.298 139.95 138.331C139.695 141.363 142.045 144.036 145.199 144.301Z" fill="white"/>
<path d="M291.166 144.784L290.84 144.936C286.605 146.911 284.773 151.944 286.748 156.179L310.271 206.624C312.246 210.859 317.279 212.691 321.514 210.716L321.84 210.564C326.075 208.589 327.907 203.556 325.932 199.321L302.409 148.876C300.434 144.641 295.401 142.809 291.166 144.784Z" fill="white"/>
<path d="M423.43 151.15C424.932 151.15 426.15 149.932 426.15 148.43C426.15 146.928 424.932 145.71 423.43 145.71C421.928 145.71 420.71 146.928 420.71 148.43C420.71 149.932 421.928 151.15 423.43 151.15Z" fill="white"/>
<path d="M233.69 163.82C212.903 208.473 192.11 253.12 171.31 297.76C168.93 302.86 165.363 304.997 160.61 304.17C155.37 303.26 152.37 298.53 154.71 293.5C175.823 248.187 196.843 202.837 217.77 157.45C221.12 150.19 222.59 146.06 230.82 146.08C238.527 146.1 246.217 146.123 253.89 146.15C259.01 146.17 262.47 148.24 264.52 152.71C286.113 199.643 307.92 246.473 329.94 293.2C330.793 295.007 331.093 296.6 330.84 297.98C329.86 303.2 325.6 303.96 320.67 303.96C281.877 303.933 243.08 303.9 204.28 303.86C200.01 303.86 196.74 304.49 193.51 301.34C189.16 297.12 190.61 289.9 196.19 287.64C197.683 287.04 200.26 286.723 203.92 286.69C237.353 286.423 270.697 286.397 303.95 286.61C304.309 286.611 304.662 286.522 304.978 286.35C305.293 286.179 305.56 285.931 305.753 285.63C305.947 285.328 306.061 284.983 306.085 284.627C306.109 284.27 306.042 283.914 305.89 283.59L250.6 164.75C250.397 164.311 250.073 163.939 249.665 163.678C249.258 163.418 248.784 163.279 248.3 163.28L234.48 163.32C234.107 163.32 233.843 163.487 233.69 163.82Z" fill="white"/>
<path d="M89.98 150.98C90.8802 150.98 91.61 150.25 91.61 149.35C91.61 148.45 90.8802 147.72 89.98 147.72C89.0798 147.72 88.35 148.45 88.35 149.35C88.35 150.25 89.0798 150.98 89.98 150.98Z" fill="white"/>
<path d="M404.93 158.38C406.51 158.38 407.79 157.1 407.79 155.52C407.79 153.94 406.51 152.66 404.93 152.66C403.35 152.66 402.07 153.94 402.07 155.52C402.07 157.1 403.35 158.38 404.93 158.38Z" fill="white"/>
<path d="M102.81 164.16C104.544 164.16 105.95 162.754 105.95 161.02C105.95 159.286 104.544 157.88 102.81 157.88C101.076 157.88 99.67 159.286 99.67 161.02C99.67 162.754 101.076 164.16 102.81 164.16Z" fill="white"/>
<path d="M66.63 168.57C69.4246 168.57 71.69 166.305 71.69 163.51C71.69 160.715 69.4246 158.45 66.63 158.45C63.8354 158.45 61.57 160.715 61.57 163.51C61.57 166.305 63.8354 168.57 66.63 168.57Z" fill="white"/>
<path d="M382.12 170.65C384.003 170.65 385.53 169.123 385.53 167.24C385.53 165.357 384.003 163.83 382.12 163.83C380.237 163.83 378.71 165.357 378.71 167.24C378.71 169.123 380.237 170.65 382.12 170.65Z" fill="white"/>
<path d="M101.01 195.66L137.26 172.79C138.807 171.817 140.087 172.09 141.1 173.61L141.47 174.16C141.796 174.653 141.915 175.255 141.801 175.834C141.687 176.412 141.349 176.922 140.86 177.25C128.753 185.403 116.697 193.2 104.69 200.64C102.9 201.74 102.81 204.42 102.22 206.21C99.26 215.28 86.75 215.43 82.92 207.31C81.08 203.4 81.9 199.27 84.85 196.04C89.33 191.147 94.4833 191.01 100.31 195.63C100.537 195.803 100.77 195.813 101.01 195.66Z" fill="white"/>
<path d="M423.27 177.789C423.501 178.636 424.294 179.158 425.04 178.954C425.785 178.75 426.202 177.898 425.97 177.051C425.739 176.204 424.946 175.682 424.2 175.886C423.455 176.09 423.038 176.942 423.27 177.789Z" fill="white"/>
<path d="M353.44 188.44C355.18 188.44 356.59 187.03 356.59 185.29C356.59 183.55 355.18 182.14 353.44 182.14C351.7 182.14 350.29 183.55 350.29 185.29C350.29 187.03 351.7 188.44 353.44 188.44Z" fill="white"/>
<path d="M405.26 196.15C408.574 196.15 411.26 193.464 411.26 190.15C411.26 186.836 408.574 184.15 405.26 184.15C401.946 184.15 399.26 186.836 399.26 190.15C399.26 193.464 401.946 196.15 405.26 196.15Z" fill="white"/>
<path d="M56.8825 196.036C58.7074 196.305 60.396 195.106 60.6542 193.358C60.9124 191.61 59.6423 189.974 57.8175 189.704C55.9926 189.435 54.304 190.634 54.0458 192.382C53.7877 194.13 55.0577 195.766 56.8825 196.036Z" fill="white"/>
<path d="M241.24 202.07C242.786 202.07 244.04 200.816 244.04 199.27C244.04 197.724 242.786 196.47 241.24 196.47C239.694 196.47 238.44 197.724 238.44 199.27C238.44 200.816 239.694 202.07 241.24 202.07Z" fill="white"/>
<path d="M369.39 215.09C370.975 215.09 372.26 213.805 372.26 212.22C372.26 210.635 370.975 209.35 369.39 209.35C367.805 209.35 366.52 210.635 366.52 212.22C366.52 213.805 367.805 215.09 369.39 215.09Z" fill="white"/>
<path d="M123.038 217.408C124.691 217.117 125.818 215.668 125.554 214.172C125.29 212.676 123.736 211.7 122.082 211.992C120.429 212.283 119.302 213.732 119.566 215.228C119.83 216.724 121.384 217.7 123.038 217.408Z" fill="white"/>
<path d="M61.83 220.17C62.7137 220.17 63.43 219.454 63.43 218.57C63.43 217.686 62.7137 216.97 61.83 216.97C60.9463 216.97 60.23 217.686 60.23 218.57C60.23 219.454 60.9463 220.17 61.83 220.17Z" fill="white"/>
<path d="M21.551 229.274C21.0925 235.232 25.4125 240.423 31.1999 240.868C36.9873 241.313 42.0506 236.844 42.509 230.886C42.9675 224.928 38.6475 219.737 32.8601 219.292C27.0727 218.847 22.0094 223.316 21.551 229.274Z" fill="white"/>
<path d="M415.78 249.96C416.03 256.79 411.17 260.69 404.54 259.15C403.1 258.82 401.46 259.19 400.45 259.97C395.997 263.437 390.673 267.36 384.48 271.74C384.23 271.916 383.946 272.04 383.647 272.103C383.347 272.166 383.038 272.168 382.738 272.108C382.438 272.048 382.153 271.928 381.9 271.755C381.648 271.581 381.434 271.359 381.27 271.1L380.9 270.51C379.833 268.823 380.113 267.397 381.74 266.23L399.22 253.72C399.513 253.513 399.67 253.233 399.69 252.88C399.997 247.8 402.53 244.653 407.29 243.44C408.923 243.02 410.51 243.4 412.05 244.58C412.29 244.767 412.533 244.773 412.78 244.6L431.44 231.8C431.7 231.62 431.82 231.373 431.8 231.06C431.573 226.893 433.213 223.61 436.72 221.21C444.55 215.85 454.77 222.56 453.51 231.52C452.35 239.81 441.17 244 434.9 237.92C434.695 237.724 434.429 237.603 434.147 237.578C433.866 237.552 433.584 237.624 433.35 237.78L416.21 249.11C415.91 249.317 415.767 249.6 415.78 249.96Z" fill="white"/>
<path d="M392.9 228.44C394.805 228.44 396.35 226.895 396.35 224.99C396.35 223.085 394.805 221.54 392.9 221.54C390.995 221.54 389.45 223.085 389.45 224.99C389.45 226.895 390.995 228.44 392.9 228.44Z" fill="white"/>
<path d="M241.94 243.08C247.131 243.08 251.34 238.871 251.34 233.68C251.34 228.489 247.131 224.28 241.94 224.28C236.749 224.28 232.54 228.489 232.54 233.68C232.54 238.871 236.749 243.08 241.94 243.08Z" fill="white"/>
<path d="M329.005 227.854L328.841 227.929C324.535 229.882 322.629 234.955 324.581 239.26L383.664 369.506C385.617 373.812 390.69 375.719 394.995 373.766L395.159 373.691C399.465 371.738 401.371 366.665 399.419 362.36L340.336 232.114C338.383 227.808 333.31 225.901 329.005 227.854Z" fill="white"/>
<path d="M68.92 232.91C69.7484 232.91 70.42 232.238 70.42 231.41C70.42 230.582 69.7484 229.91 68.92 229.91C68.0916 229.91 67.42 230.582 67.42 231.41C67.42 232.238 68.0916 232.91 68.92 232.91Z" fill="white"/>
<path d="M93.58 249.79C97.0097 249.79 99.79 247.01 99.79 243.58C99.79 240.15 97.0097 237.37 93.58 237.37C90.1503 237.37 87.37 240.15 87.37 243.58C87.37 247.01 90.1503 249.79 93.58 249.79Z" fill="white"/>
<path d="M373.47 244.37C375.05 244.37 376.33 243.09 376.33 241.51C376.33 239.93 375.05 238.65 373.47 238.65C371.89 238.65 370.61 239.93 370.61 241.51C370.61 243.09 371.89 244.37 373.47 244.37Z" fill="white"/>
<path d="M68.07 262.89C69.6551 262.89 70.94 261.605 70.94 260.02C70.94 258.435 69.6551 257.15 68.07 257.15C66.4849 257.15 65.2 258.435 65.2 260.02C65.2 261.605 66.4849 262.89 68.07 262.89Z" fill="white"/>
<path d="M222.7 266.5C224.224 266.5 225.46 265.264 225.46 263.74C225.46 262.216 224.224 260.98 222.7 260.98C221.176 260.98 219.94 262.216 219.94 263.74C219.94 265.264 221.176 266.5 222.7 266.5Z" fill="white"/>
<path d="M266.594 266.215C268.103 266.427 269.486 265.464 269.683 264.064C269.88 262.664 268.816 261.357 267.306 261.145C265.797 260.933 264.414 261.896 264.217 263.296C264.02 264.696 265.084 266.003 266.594 266.215Z" fill="white"/>
<path d="M431.255 266.116C430.941 266.919 431.261 267.794 431.971 268.072C432.68 268.351 433.511 267.926 433.825 267.124C434.139 266.321 433.819 265.446 433.109 265.168C432.4 264.889 431.57 265.314 431.255 266.116Z" fill="white"/>
<path d="M69.26 302.22C75.4667 302.533 78.7133 305.603 79 311.43C79.47 320.78 64.59 323.57 61.61 314.03C60.81 311.47 61.2433 308.85 62.91 306.17C63.0968 305.873 63.1974 305.529 63.201 305.176C63.2045 304.823 63.1107 304.475 62.93 304.17L45.93 275.6C44.8767 273.827 45.2 272.353 46.9 271.18L47.6 270.7C47.8602 270.521 48.1542 270.398 48.4638 270.337C48.7735 270.276 49.092 270.28 49.3997 270.347C49.7074 270.415 49.9976 270.545 50.2523 270.729C50.507 270.914 50.7207 271.149 50.88 271.42L68.64 301.85C68.78 302.083 68.9867 302.207 69.26 302.22Z" fill="white"/>
<path d="M90.3932 284.943C92.0572 284.83 93.3197 283.469 93.213 281.905C93.1063 280.34 91.6709 279.163 90.0068 279.277C88.3428 279.39 87.0803 280.751 87.187 282.315C87.2937 283.88 88.7291 285.057 90.3932 284.943Z" fill="white"/>
<path d="M423.91 294.97C427.218 294.97 429.9 292.288 429.9 288.98C429.9 285.672 427.218 282.99 423.91 282.99C420.602 282.99 417.92 285.672 417.92 288.98C417.92 292.288 420.602 294.97 423.91 294.97Z" fill="white"/>
<path d="M393.846 292.583C394.49 292.096 394.641 291.213 394.184 290.609C393.728 290.006 392.837 289.911 392.194 290.397C391.55 290.884 391.399 291.767 391.856 292.371C392.312 292.974 393.203 293.069 393.846 292.583Z" fill="white"/>
<path d="M41.5805 302.503C41.5572 303.392 42.1739 304.129 42.9579 304.149C43.7418 304.17 44.3962 303.466 44.4195 302.577C44.4428 301.688 43.8261 300.951 43.0422 300.931C42.2582 300.91 41.6038 301.614 41.5805 302.503Z" fill="white"/>
<path d="M407.51 320.17C409.012 320.17 410.23 318.952 410.23 317.45C410.23 315.948 409.012 314.73 407.51 314.73C406.008 314.73 404.79 315.948 404.79 317.45C404.79 318.952 406.008 320.17 407.51 320.17Z" fill="white"/>
<path d="M94.35 425.88C108.737 393.887 122.943 362.647 136.97 332.16C140.03 325.5 143.68 322.16 151 322.15C242.373 321.97 303.373 322.01 334 322.27C343.64 322.35 347.34 334.23 350.89 341.82C363.637 369.067 376.43 396.997 389.27 425.61C389.292 425.656 389.302 425.706 389.299 425.757C389.296 425.808 389.281 425.857 389.254 425.9C389.227 425.942 389.189 425.978 389.145 426.002C389.101 426.027 389.051 426.04 389 426.04L371.96 426.13C371.599 426.13 371.247 426.026 370.943 425.831C370.64 425.636 370.4 425.358 370.25 425.03C357.897 398.057 345.437 371.273 332.87 344.68C330.92 340.56 326.37 339.01 321.67 339.01C267.863 338.997 214.057 338.993 160.25 339C153.72 339 150.59 343.19 147.78 349.08C135.66 374.41 124.55 400.21 112.54 425.6C112.42 425.84 112.227 425.963 111.96 425.97L94.47 426.06C94.3367 426.06 94.2967 426 94.35 425.88Z" fill="white"/>
<path d="M60.04 343.97C61.6748 343.97 63 342.645 63 341.01C63 339.375 61.6748 338.05 60.04 338.05C58.4052 338.05 57.08 339.375 57.08 341.01C57.08 342.645 58.4052 343.97 60.04 343.97Z" fill="white"/>
<path d="M422.94 344.1C424.569 344.1 425.89 342.779 425.89 341.15C425.89 339.521 424.569 338.2 422.94 338.2C421.311 338.2 419.99 339.521 419.99 341.15C419.99 342.779 421.311 344.1 422.94 344.1Z" fill="white"/>
<path d="M178.2 359.54C179.57 359.54 180.68 358.43 180.68 357.06C180.68 355.69 179.57 354.58 178.2 354.58C176.83 354.58 175.72 355.69 175.72 357.06C175.72 358.43 176.83 359.54 178.2 359.54Z" fill="white"/>
<path d="M215.95 358.33C216.933 358.33 217.73 357.533 217.73 356.55C217.73 355.567 216.933 354.77 215.95 354.77C214.967 354.77 214.17 355.567 214.17 356.55C214.17 357.533 214.967 358.33 215.95 358.33Z" fill="white"/>
<path d="M242.03 373.86C245.228 373.86 247.82 371.268 247.82 368.07C247.82 364.872 245.228 362.28 242.03 362.28C238.832 362.28 236.24 364.872 236.24 368.07C236.24 371.268 238.832 373.86 242.03 373.86Z" fill="white"/>
<path d="M312.82 379.3C316.106 379.3 318.77 376.636 318.77 373.35C318.77 370.064 316.106 367.4 312.82 367.4C309.534 367.4 306.87 370.064 306.87 373.35C306.87 376.636 309.534 379.3 312.82 379.3Z" fill="white"/>
<path d="M238.266 395.104L178.078 374.614C176.441 374.057 174.663 374.932 174.106 376.569L174.08 376.644C173.523 378.281 174.398 380.059 176.034 380.616L236.222 401.106C237.859 401.663 239.637 400.788 240.194 399.151L240.22 399.076C240.777 397.439 239.902 395.661 238.266 395.104Z" fill="white"/>
<path d="M279.64 389.13C283.108 389.13 285.92 386.318 285.92 382.85C285.92 379.382 283.108 376.57 279.64 376.57C276.172 376.57 273.36 379.382 273.36 382.85C273.36 386.318 276.172 389.13 279.64 389.13Z" fill="white"/>
<path d="M56.87 425.68C61.59 415.74 66.12 405.76 70.7 395.77C72.6133 391.597 75.4267 389.503 79.14 389.49C86.68 389.46 88.7 396.08 86.02 402.15C82.5667 409.99 79.1 417.717 75.62 425.33C75.5303 425.53 75.3848 425.7 75.2005 425.821C75.0163 425.941 74.801 426.007 74.58 426.01L57.21 426.2C56.8167 426.207 56.7033 426.033 56.87 425.68Z" fill="white"/>
<path d="M408.92 425.92C404.773 417.24 401.037 408.853 397.71 400.76C394.85 393.82 401.5 387.34 408.16 389.7C411.85 391 412.94 393.81 414.53 397.23C418.93 406.663 423.297 416.117 427.63 425.59C427.817 425.997 427.687 426.2 427.24 426.2L409.46 426.26C409.207 426.26 409.027 426.147 408.92 425.92Z" fill="white"/>
<path d="M153.62 397.37C155.133 397.37 156.36 396.143 156.36 394.63C156.36 393.117 155.133 391.89 153.62 391.89C152.107 391.89 150.88 393.117 150.88 394.63C150.88 396.143 152.107 397.37 153.62 397.37Z" fill="white"/>
<path d="M331.06 405.1C332.678 405.1 333.99 403.788 333.99 402.17C333.99 400.552 332.678 399.24 331.06 399.24C329.442 399.24 328.13 400.552 328.13 402.17C328.13 403.788 329.442 405.1 331.06 405.1Z" fill="white"/>
<path d="M305.002 405.493C305.921 405.277 306.523 404.488 306.345 403.73C306.167 402.971 305.277 402.532 304.358 402.747C303.439 402.963 302.837 403.752 303.015 404.51C303.193 405.269 304.083 405.708 305.002 405.493Z" fill="white"/>
<path d="M168.42 409.12C170.093 409.12 171.45 407.763 171.45 406.09C171.45 404.417 170.093 403.06 168.42 403.06C166.747 403.06 165.39 404.417 165.39 406.09C165.39 407.763 166.747 409.12 168.42 409.12Z" fill="white"/>
<path d="M267.56 415.69C268.388 415.69 269.06 415.018 269.06 414.19C269.06 413.362 268.388 412.69 267.56 412.69C266.732 412.69 266.06 413.362 266.06 414.19C266.06 415.018 266.732 415.69 267.56 415.69Z" fill="white"/>
<path d="M290.23 421.73C292.345 421.73 294.06 420.015 294.06 417.9C294.06 415.785 292.345 414.07 290.23 414.07C288.115 414.07 286.4 415.785 286.4 417.9C286.4 420.015 288.115 421.73 290.23 421.73Z" fill="white"/>
<path d="M199.62 425.16C202.619 425.16 205.05 422.729 205.05 419.73C205.05 416.731 202.619 414.3 199.62 414.3C196.621 414.3 194.19 416.731 194.19 419.73C194.19 422.729 196.621 425.16 199.62 425.16Z" fill="white"/>
<path d="M247.131 445.949C252.44 443.496 254.787 437.272 252.373 432.048C249.959 426.824 243.699 424.578 238.389 427.031C233.08 429.484 230.733 435.708 233.147 440.932C235.56 446.156 241.821 448.402 247.131 445.949Z" fill="white"/>
</g>
<defs>
<clipPath id="clip0_101_2">
<rect width="479" height="465" fill="white"/>
</clipPath>
</defs>
</svg>
